<svg width="64" height="64" viewBox="0 0 64 64" fill="none" xmlns="http://www.w3.org/2000/svg">
<circle cx="32" cy="32" r="32" fill="white"/>
<circle cx="32" cy="32" r="31.5" stroke="#1BCCBA" stroke-opacity="0.25"/>
<circle cx="32" cy="32" r="28" fill="#1BCCBA" fill-opacity="0.1"/>
<path d="M23.3328 26.4H20.8839V33.7182H20.7817L15.7589 26.4H13.5999V38.0364H16.0601V30.7125H16.1453L21.2078 38.0364H23.3328V26.4Z" fill="#1BCCBA"/>
<path d="M25.3655 38.0364H33.2291V36.0079H27.8257V33.2295H32.803V31.2011H27.8257V28.4284H33.2064V26.4H25.3655V38.0364Z" fill="#1BCCBA"/>
<path d="M37.7817 38.0364H40.1794L42.3896 30.4284H42.4805L44.6964 38.0364H47.0942L50.4237 26.4H47.7362L45.8101 34.5023H45.7078L43.5885 26.4H41.2874L39.1624 34.4852H39.0658L37.1396 26.4H34.4521L37.7817 38.0364Z" fill="#1BCCBA"/>
</svg>
