<svg width="64" height="64" viewBox="0 0 64 64" fill="none" xmlns="http://www.w3.org/2000/svg">
<circle cx="32" cy="32" r="32" fill="white"/>
<circle cx="32" cy="32" r="31.5" stroke="#F6A147" stroke-opacity="0.25"/>
<circle cx="32" cy="32" r="32" fill="white"/>
<circle cx="32" cy="32" r="31.5" stroke="#F6A147" stroke-opacity="0.25"/>
<circle cx="32" cy="32" r="28" fill="#F6A147" fill-opacity="0.1"/>
<g clip-path="url(#clip0)">
<path d="M40.2992 21.7899L43.9395 21.7899L24.2696 41.4599L20.6791 41.4101L40.2992 21.7899Z" fill="#F6A147"/>
<path d="M25.8801 22.48C26.5163 22.4721 27.1405 22.654 27.6728 23.0026C28.2051 23.3512 28.6214 23.8505 28.8686 24.4368C29.1157 25.0232 29.1825 25.6699 29.0603 26.2943C28.9381 26.9187 28.6325 27.4926 28.1826 27.9425C27.7326 28.3924 27.1588 28.698 26.5344 28.8202C25.9099 28.9424 25.2632 28.8757 24.6769 28.6285C24.0906 28.3814 23.5912 27.965 23.2427 27.4327C22.8941 26.9004 22.7122 26.2762 22.7201 25.64C22.7201 24.8019 23.053 23.9982 23.6456 23.4055C24.2382 22.8129 25.042 22.48 25.8801 22.48ZM25.8801 20.44C24.8403 20.4321 23.8217 20.7337 22.9539 21.3064C22.0861 21.8791 21.4083 22.6971 21.0068 23.6562C20.6052 24.6153 20.4981 25.6722 20.699 26.6924C20.8999 27.7125 21.3998 28.6499 22.135 29.3851C22.8702 30.1203 23.8075 30.6202 24.8277 30.8211C25.8479 31.022 26.9048 30.9149 27.8639 30.5133C28.823 30.1118 29.6409 29.434 30.2137 28.5661C30.7864 27.6983 31.088 26.6797 31.0801 25.64C31.0801 24.2609 30.5322 22.9382 29.557 21.963C28.5818 20.9879 27.2592 20.44 25.8801 20.44Z" fill="#F6A147" stroke="#F6A147" stroke-width="0.5"/>
<path d="M38.1599 34.76C38.7961 34.7521 39.4203 34.9341 39.9526 35.2826C40.4849 35.6312 40.9012 36.1305 41.1484 36.7169C41.3955 37.3032 41.4623 37.9499 41.3401 38.5743C41.2179 39.1988 40.9123 39.7726 40.4624 40.2225C40.0124 40.6725 39.4386 40.978 38.8142 41.1002C38.1897 41.2224 37.543 41.1557 36.9567 40.9085C36.3704 40.6614 35.871 40.2451 35.5225 39.7127C35.1739 39.1804 34.992 38.5563 34.9999 37.92C34.9999 37.0819 35.3328 36.2782 35.9254 35.6856C36.518 35.093 37.3218 34.76 38.1599 34.76ZM38.1599 32.72C37.1201 32.7121 36.1015 33.0137 35.2337 33.5864C34.3659 34.1592 33.6881 34.9771 33.2865 35.9362C32.885 36.8953 32.7778 37.9522 32.9788 38.9724C33.1797 39.9926 33.6795 40.9299 34.4148 41.6651C35.15 42.4004 36.0873 42.9002 37.1075 43.1011C38.1277 43.302 39.1846 43.1949 40.1437 42.7934C41.1028 42.3918 41.9207 41.714 42.4935 40.8462C43.0662 39.9784 43.3678 38.9598 43.3599 37.92C43.3599 36.5409 42.812 35.2183 41.8368 34.2431C40.8616 33.2679 39.539 32.72 38.1599 32.72Z" fill="#F6A147" stroke="#F6A147" stroke-width="0.5"/>
</g>
<defs>
<clipPath id="clip0">
<rect width="24" height="24" fill="white" transform="translate(20 20)"/>
</clipPath>
</defs>
</svg>
