<svg width="64" height="64" viewBox="0 0 64 64" fill="none" xmlns="http://www.w3.org/2000/svg">
<circle cx="32" cy="32" r="32" fill="white"/>
<circle cx="32" cy="32" r="31.5" stroke="#F14960" stroke-opacity="0.25"/>
<circle cx="32" cy="32" r="28" fill="#F14960" fill-opacity="0.1"/>
<path d="M16 28.5875H19.5625V38.1955H21.9943V28.5875H25.5568V26.5591H16V28.5875Z" fill="#F14960"/>
<path d="M37.3082 32.3773C37.3082 28.5704 34.9446 26.4 31.8594 26.4C28.7571 26.4 26.4105 28.5704 26.4105 32.3773C26.4105 36.167 28.7571 38.3545 31.8594 38.3545C34.9446 38.3545 37.3082 36.1841 37.3082 32.3773ZM34.8139 32.3773C34.8139 34.8432 33.6435 36.1784 31.8594 36.1784C30.0696 36.1784 28.9048 34.8432 28.9048 32.3773C28.9048 29.9114 30.0696 28.5761 31.8594 28.5761C33.6435 28.5761 34.8139 29.9114 34.8139 32.3773Z" fill="#F14960"/>
<path d="M39.1307 38.1955H41.5909V34.4227H43.6591C46.3352 34.4227 47.892 32.8261 47.892 30.5023C47.892 28.1898 46.3636 26.5591 43.7216 26.5591H39.1307V38.1955ZM41.5909 32.4511V28.5704H43.25C44.6705 28.5704 45.358 29.3432 45.358 30.5023C45.358 31.6557 44.6705 32.4511 43.2614 32.4511H41.5909Z" fill="#F14960"/>
</svg>
