<svg width="24" height="24" viewBox="0 0 24 24" fill="none" xmlns="http://www.w3.org/2000/svg">
<path d="M20.5713 8.71429V21.8501C20.5722 21.9815 20.5473 22.1117 20.4979 22.2334C20.4485 22.355 20.3756 22.4658 20.2834 22.5593C20.1911 22.6528 20.0814 22.7272 19.9604 22.7784C19.8395 22.8295 19.7096 22.8562 19.5783 22.8571H3.56429C3.3011 22.8571 3.04868 22.7527 2.86249 22.5667C2.67629 22.3806 2.57155 22.1283 2.57129 21.8651V2.70629C2.57129 2.16929 3.01829 1.71429 3.56929 1.71429H13.5713V7.71429C13.5713 7.9795 13.6766 8.23386 13.8642 8.42139C14.0517 8.60893 14.3061 8.71429 14.5713 8.71429H20.5713ZM20.5713 6.71429H15.5713V1.71729L20.5713 6.71429ZM7.57129 7.71429V9.71429H10.5713V7.71429H7.57129ZM7.57129 11.7143V13.7143H15.5713V11.7143H7.57129ZM7.57129 15.7143V17.7143H15.5713V15.7143H7.57129Z" fill="#12506D"/>
</svg>
