<svg width="24" height="24" viewBox="0 0 24 24" fill="none" xmlns="http://www.w3.org/2000/svg">
<g clip-path="url(#clip0)">
<path d="M12.1429 13C14.9787 13 17.2857 10.757 17.2857 8C17.2857 5.24295 14.9787 3 12.1429 3C9.30704 3 7 5.24295 7 8C7 10.757 9.30704 13 12.1429 13Z" fill="#12506D"/>
<path d="M19.0853 16.3989C19.0831 16.3982 19.0788 16.3966 19.0765 16.3961C18.3891 16.2301 16.284 15.939 16.284 15.939C16.0464 15.8667 15.7925 15.9911 15.707 16.2229L12.5384 24.8158C12.3556 25.3114 11.6463 25.3114 11.4635 24.8158L8.29497 16.2229C8.22597 16.0357 8.04725 15.9184 7.85573 15.9184C7.81033 15.9184 5.64592 16.2183 4.92535 16.3954C2.95632 16.8793 1.71436 18.7931 1.71436 20.7875V27.9374C1.71436 29.0089 2.5932 29.8775 3.67725 29.8775H20.3229C21.4069 29.8775 22.2858 29.0089 22.2858 27.9374V20.7638C22.2857 18.778 20.9951 17.0157 19.0853 16.3989Z" fill="#12506D"/>
<path d="M13.2847 16.1139C13.1488 15.9838 12.9502 15.9184 12.7493 15.9184H11.2505C11.0496 15.9184 10.8509 15.9838 10.7151 16.1139C10.5047 16.3152 10.4742 16.6061 10.6235 16.8334L11.4247 17.8945L9.7959 21.7959L11.7883 25.4694C11.8603 25.643 12.1397 25.643 12.2117 25.4694L14.072 21.7959L12.5752 17.8945L13.3765 16.8334C13.5256 16.6061 13.495 16.3152 13.2847 16.1139Z" fill="#12506D"/>
</g>
<defs>
<clipPath id="clip0">
<rect width="24" height="24" fill="white"/>
</clipPath>
</defs>
</svg>
