<svg width="24" height="24" viewBox="0 0 24 24" fill="none" xmlns="http://www.w3.org/2000/svg">
<path fill-rule="evenodd" clip-rule="evenodd" d="M8 10H5.28988C5.10128 10.6337 5 11.305 5 12C5 15.866 8.13401 19 12 19C15.866 19 19 15.866 19 12C19 8.13401 15.866 5 12 5C10.5128 5 9.13383 5.46381 8 6.25469V10ZM11.2072 12.2857L11.2365 7.17637H12.7628V11.6422L15.9513 14.8717L14.8712 15.9508L11.2072 12.2857Z" fill="#12506D"/>
<path d="M11.9995 21.9C9.42076 21.8893 6.94702 20.8772 5.10038 19.0772C3.25374 17.2772 2.17866 14.8302 2.10205 12.2525H3.6294C3.6884 14.2101 4.43162 16.0851 5.72984 17.5515C7.02805 19.0179 8.79914 19.983 10.7352 20.2788C12.6712 20.5747 14.6496 20.1826 16.3266 19.1709C18.0035 18.1592 19.2728 16.5917 19.9137 14.7411C20.5547 12.8904 20.5268 10.8737 19.8349 9.04149C19.1429 7.20931 17.8308 5.67757 16.1265 4.71262C14.4222 3.74767 12.4336 3.41054 10.5066 3.75986C8.57947 4.10918 6.83576 5.12285 5.57862 6.6246L5.4292 6.80135L7.32959 8.70174H2.09912V3.47127L4.34424 5.71542L4.52198 5.51131C5.60843 4.25923 6.99188 3.29999 8.54545 2.72161C10.099 2.14322 11.7729 1.96421 13.4137 2.20098C15.0544 2.43775 16.6094 3.08272 17.9361 4.07674C19.2627 5.07076 20.3186 6.382 21.0067 7.89017C21.6948 9.39834 21.9932 11.0552 21.8745 12.7086C21.7558 14.3621 21.2238 15.9593 20.3273 17.3537C19.4308 18.7481 18.1985 19.8951 16.7435 20.6894C15.2884 21.4838 13.6572 21.9 11.9995 21.9Z" fill="#12506D"/>
</svg>
