<svg width="25" height="35" viewBox="0 0 25 35" fill="none" xmlns="http://www.w3.org/2000/svg">
<path d="M12.5833 2.58492L12.4996 2.45729L12.416 2.58493C10.7253 5.16534 8.2273 9.2006 6.15156 13.1349C5.11374 15.102 4.18057 17.0455 3.50661 18.7704C2.83385 20.4922 2.41483 22.0071 2.41483 23.1127C2.41483 28.6768 6.93865 33.1979 12.4997 33.1979C18.06 33.1979 22.5852 28.6768 22.5852 23.1127C22.5852 22.0061 22.1662 20.4908 21.4934 18.7688C20.8195 17.0438 19.8863 15.1004 18.8485 13.1335C16.7727 9.19966 14.2745 5.16532 12.5833 2.58492ZM12.5 29.3943H12.5001C12.968 29.394 13.3504 29.773 13.3504 30.245C13.3504 30.7152 12.9679 31.0961 12.4997 31.0961C8.09657 31.0961 4.51696 27.5152 4.51696 23.1131C4.51696 22.6446 4.90016 22.262 5.36803 22.262C5.83585 22.262 6.21875 22.6446 6.21875 23.1131C6.21875 26.5785 9.03629 29.3943 12.5 29.3943ZM11.795 0.445407C11.9487 0.218663 12.2195 0.100122 12.4988 0.100122C12.778 0.100122 13.0495 0.218639 13.2044 0.445568C13.4312 0.78152 16.2038 4.894 18.9196 9.70398C20.2779 12.1097 21.621 14.6881 22.6241 17.0546C23.6288 19.4249 24.2868 21.5696 24.2866 23.1127C24.2866 29.6101 18.997 34.8997 12.4993 34.8997C6.00265 34.8997 0.712366 29.6104 0.712366 23.1127C0.712366 21.5696 1.3704 19.425 2.37516 17.0549C3.37835 14.6885 4.7214 12.1102 6.07969 9.70462C8.79026 4.90402 11.5574 0.79805 11.7936 0.447464L11.795 0.445449C11.795 0.445435 11.795 0.445421 11.795 0.445407Z" fill="#239FDA" stroke="#FCFCFC" stroke-width="0.2"/>
</svg>
