<svg width="28" height="28" viewBox="0 0 28 28" fill="none" xmlns="http://www.w3.org/2000/svg">
<path d="M3.93555 22.8065C3.24202 22.8065 2.67749 23.371 2.67749 24.0645C2.67749 24.7581 3.24202 25.3226 3.93555 25.3226C4.62909 25.3226 5.19362 24.7581 5.19362 24.0645C5.19362 23.371 4.62909 22.8065 3.93555 22.8065ZM3.93555 24.4839C3.70458 24.4839 3.5162 24.2959 3.5162 24.0645C3.5162 23.8331 3.70458 23.6452 3.93555 23.6452C4.16653 23.6452 4.35491 23.8331 4.35491 24.0645C4.35491 24.2959 4.16653 24.4839 3.93555 24.4839Z" fill="#239FDA" stroke="#239FDA" stroke-width="0.2"/>
<path d="M27 4.08803C27 2.38563 25.6148 1 23.912 1C23.087 1 22.3115 1.32127 21.7284 1.90464L20.2346 3.39778C19.9078 3.20673 19.5384 3.09677 19.1496 3.09677C18.4069 3.09677 17.7255 3.47129 17.3264 4.09786L14.7234 8.1878L15.5034 8.96774L14.4194 10.0522L14.1376 9.77041C13.8905 9.52306 13.5618 9.3871 13.2121 9.3871C12.4903 9.3871 11.9032 9.97415 11.9032 10.6959C11.9032 11.0406 12.0429 11.3778 12.2865 11.6215L12.5683 11.9032L11.4839 12.9877L11.2021 12.7059C10.955 12.4585 10.6263 12.3226 10.2766 12.3226C9.5548 12.3226 8.96774 12.9096 8.96774 13.6314C8.96774 13.976 9.10739 14.3133 9.35106 14.557L9.63281 14.8387L8.54839 15.9231L8.26663 15.6414C8.01948 15.394 7.69084 15.2581 7.3411 15.2581C6.61931 15.2581 6.03226 15.8451 6.03226 16.5669C6.03226 16.9115 6.17191 17.2488 6.41557 17.4924L6.69733 17.7742L5.6129 18.8586L5.33115 18.5769C5.084 18.3295 4.75536 18.1935 4.40562 18.1935C3.68383 18.1935 3.09677 18.7806 3.09677 19.5024C3.09677 19.847 3.23642 20.1843 3.48009 20.4279L3.76184 20.7097L1.73059 22.7405C1.25964 23.2119 1 23.8385 1 24.5048C1 25.8808 2.11924 27 3.49524 27C4.16154 27 4.78812 26.7404 5.25948 26.269L7.29032 24.2382L7.57208 24.5199C7.81923 24.7673 8.14787 24.9032 8.49761 24.9032C9.2194 24.9032 9.80645 24.3162 9.80645 23.5944C9.80645 23.2498 9.6668 22.9125 9.42313 22.6688L9.14138 22.3871L10.2258 21.3027L10.5076 21.5844C10.7547 21.8318 11.0834 21.9677 11.4331 21.9677C12.1549 21.9677 12.7419 21.3807 12.7419 20.6589C12.7419 20.3143 12.6023 19.977 12.3586 19.7334L12.0769 19.4516L13.1613 18.3672L13.443 18.6489C13.6902 18.8963 14.0188 19.0323 14.3686 19.0323C15.0904 19.0323 15.6774 18.4452 15.6774 17.7234C15.6774 17.3788 15.5378 17.0416 15.2941 16.7979L15.0123 16.5161L16.0968 15.4317L16.3785 15.7135C16.6257 15.9608 16.9543 16.0968 17.3041 16.0968C18.0258 16.0968 18.6129 15.5097 18.6129 14.7879C18.6129 14.4433 18.4733 14.1061 18.2296 13.8624L17.9478 13.5806L19.0323 12.4962L19.8122 13.2762L23.9021 10.6732C24.5291 10.2749 24.9032 9.5935 24.9032 8.85082C24.9032 8.46198 24.7933 8.09258 24.6016 7.76537L26.0954 6.27204C26.6787 5.68887 27 4.91302 27 4.08803ZM4.66608 25.676C4.35361 25.9889 3.93753 26.1613 3.49524 26.1613C2.58179 26.1613 1.83871 25.4182 1.83871 24.5048C1.83871 24.0625 2.01112 23.6464 2.324 23.3335L4.35484 21.3027L6.69733 23.6452L4.66608 25.676ZM8.49761 24.0645C8.37188 24.0645 8.25394 24.0158 8.16507 23.9269L4.07308 19.8349C3.98586 19.7473 3.93548 19.6261 3.93548 19.5024C3.93548 19.2432 4.14639 19.0323 4.40562 19.0323C4.53134 19.0323 4.64929 19.081 4.73816 19.1699L8.83014 23.2618C8.91737 23.3495 8.96774 23.4707 8.96774 23.5944C8.96774 23.8536 8.75684 24.0645 8.49761 24.0645ZM8.54839 21.7941L6.2059 19.4516L7.29032 18.3672L9.63281 20.7097L8.54839 21.7941ZM11.4331 21.129C11.3074 21.129 11.1894 21.0803 11.1006 20.9914L7.00857 16.8994C6.92134 16.8118 6.87097 16.6906 6.87097 16.5669C6.87097 16.3077 7.08187 16.0968 7.3411 16.0968C7.46683 16.0968 7.58477 16.1455 7.67364 16.2344L11.7656 20.3264C11.8529 20.414 11.9032 20.5352 11.9032 20.6589C11.9032 20.9181 11.6923 21.129 11.4331 21.129ZM11.4839 18.8586L9.14138 16.5161L10.2258 15.4317L12.5683 17.7742L11.4839 18.8586ZM14.3686 18.1935C14.2428 18.1935 14.1249 18.1448 14.036 18.0559L9.94405 13.964C9.85682 13.8763 9.80645 13.7551 9.80645 13.6314C9.80645 13.3722 10.0174 13.1613 10.2766 13.1613C10.4023 13.1613 10.5203 13.21 10.6091 13.2989L14.7011 17.3909C14.7883 17.4785 14.8387 17.5997 14.8387 17.7234C14.8387 17.9826 14.6278 18.1935 14.3686 18.1935ZM14.4194 15.9231L12.0769 13.5806L13.1613 12.4962L15.5038 14.8387L14.4194 15.9231ZM17.3041 15.2581C17.1783 15.2581 17.0604 15.2093 16.9715 15.1205L12.8795 11.0285C12.7923 10.9408 12.7419 10.8196 12.7419 10.6959C12.7419 10.4367 12.9528 10.2258 13.2121 10.2258C13.3378 10.2258 13.4557 10.2745 13.5446 10.3634L17.6366 14.4554C17.7238 14.543 17.7742 14.6643 17.7742 14.7879C17.7742 15.0472 17.5633 15.2581 17.3041 15.2581ZM17.3548 12.9877L15.0123 10.6452L16.0968 9.56074L18.4393 11.9032L17.3548 12.9877ZM15.7923 8.07026L17.6145 5.20747L22.7925 10.3855L19.9297 12.2077L15.7923 8.07026ZM23.5106 9.91764L18.0824 4.48937C18.3311 4.14434 18.721 3.93548 19.1496 3.93548C19.5028 3.93548 19.8349 4.07308 20.0843 4.3229L23.6771 7.91526C23.9269 8.16507 24.0645 8.4972 24.0645 8.85082C24.0645 9.27939 23.8557 9.66926 23.5106 9.91764ZM24.0645 7.11668L20.8833 3.93548L22.3212 2.49743C22.746 2.07275 23.3114 1.83871 23.912 1.83871C25.1524 1.83871 26.1613 2.84758 26.1613 4.08803C26.1613 4.68901 25.9272 5.25395 25.5026 5.67884L24.0645 7.11668Z" fill="#239FDA" stroke="#239FDA" stroke-width="0.2"/>
<path d="M24.0645 2.67743C23.3709 2.67743 22.8064 3.24196 22.8064 3.93549C22.8064 4.62903 23.3709 5.19356 24.0645 5.19356C24.758 5.19356 25.3225 4.62903 25.3225 3.93549C25.3225 3.24196 24.758 2.67743 24.0645 2.67743ZM24.0645 4.35485C23.8335 4.35485 23.6451 4.16688 23.6451 3.93549C23.6451 3.70411 23.8335 3.51614 24.0645 3.51614C24.2954 3.51614 24.4838 3.70411 24.4838 3.93549C24.4838 4.16688 24.2954 4.35485 24.0645 4.35485Z" fill="#239FDA" stroke="#239FDA" stroke-width="0.2"/>
</svg>
