<svg width="35" height="35" viewBox="0 0 35 35" fill="none" xmlns="http://www.w3.org/2000/svg">
<path fill-rule="evenodd" clip-rule="evenodd" d="M4.02131 7.42144C4.33234 7.63533 4.41109 8.06094 4.1972 8.37204C2.34582 11.0642 1.36719 14.2207 1.36719 17.5C1.36719 26.3957 8.60433 33.6328 17.5 33.6328C26.3957 33.6328 33.6328 26.3957 33.6328 17.5C33.6328 8.60433 26.3957 1.36719 17.5 1.36719C14.2211 1.36719 11.0645 2.34589 8.37156 4.19754C8.06039 4.41137 7.63492 4.33262 7.42096 4.02158C7.20706 3.71048 7.28581 3.28487 7.59691 3.07098C10.5188 1.06196 13.9433 0 17.5 0C22.1744 0 26.569 1.82027 29.8744 5.12559C33.1797 8.43097 35 12.8256 35 17.5C35 22.1744 33.1797 26.569 29.8744 29.8744C26.569 33.1797 22.1744 35 17.5 35C12.8256 35 8.43097 33.1797 5.12559 29.8744C1.82027 26.569 0 22.1744 0 17.5C0 13.9429 1.06183 10.5185 3.0707 7.59732C3.28467 7.28622 3.71021 7.20761 4.02131 7.42144ZM8.16352 3.89497C8.16351 3.89497 8.1635 3.89498 8.16348 3.89499L8.16347 3.895C8.16348 3.89499 8.1635 3.89498 8.16352 3.89497Z" fill="#239FDA"/>
<path fill-rule="evenodd" clip-rule="evenodd" d="M28.4449 13.4759C28.0594 13.4019 27.6731 13.3319 27.286 13.2658C27.4383 13.6201 27.5711 13.9826 27.6841 14.3512C28.0197 15.4458 28.1803 16.5939 28.1575 17.7406C28.1505 18.0893 28.1266 18.4378 28.0855 18.7847C28.422 18.7008 28.7645 18.6323 29.1122 18.58C29.4624 18.5273 29.8179 18.4911 30.178 18.4723C30.2024 18.1514 30.2148 17.8271 30.2148 17.5C30.2148 16.1837 30.0137 14.9135 29.6407 13.7184C29.2431 13.6334 28.8444 13.5526 28.4449 13.4759ZM6.91441 18.7847C6.87331 18.4378 6.84941 18.0893 6.84248 17.7406C6.81968 16.5939 6.98038 15.4458 7.31591 14.3512C7.4289 13.9826 7.56171 13.6201 7.71401 13.2658C7.32693 13.3319 6.94061 13.4019 6.55512 13.4759C6.15559 13.5526 5.75696 13.6334 5.35931 13.7184C4.98627 14.9135 4.78516 16.1837 4.78516 17.5C4.78516 17.8271 4.7976 18.1514 4.822 18.4723C5.18205 18.4911 5.53754 18.5274 5.88772 18.58C6.23543 18.6323 6.57791 18.7009 6.91441 18.7847ZM5.00459 19.8544C4.91708 19.8475 5.09271 19.859 5.00459 19.8544C5.06995 20.202 5.14951 20.5448 5.24264 20.8819C6.31923 24.7795 9.20921 27.9319 12.9438 29.3702C13.0901 29.4265 13.2376 29.4802 13.3864 29.5312C13.5701 29.5942 13.7557 29.6531 13.9431 29.7078C13.9442 29.6489 13.9453 29.59 13.9453 29.5312C13.9453 29.2343 13.9319 28.9404 13.9057 28.6502C13.5139 24.3151 10.2597 20.7933 6.05328 19.9946C5.70972 19.9293 5.35981 19.8822 5.00459 19.8544ZM15.301 30.024C16.0156 30.1491 16.7502 30.2148 17.5 30.2148C18.2498 30.2148 18.9845 30.1491 19.699 30.0241C19.6917 29.8595 19.6875 29.6949 19.6875 29.5312C19.6875 29.3379 19.6926 29.1457 19.7025 28.9548C19.7208 28.603 19.7557 28.2554 19.8061 27.9128C19.465 27.9878 19.1204 28.046 18.774 28.0873C18.3512 28.1376 17.9256 28.1629 17.5 28.1629C17.0743 28.1629 16.6487 28.1376 16.226 28.0873C15.8795 28.046 15.535 27.9878 15.1939 27.9128C15.2443 28.2554 15.2792 28.603 15.2975 28.9549C15.3074 29.1457 15.3125 29.3379 15.3125 29.5312C15.3125 29.6948 15.3083 29.8594 15.301 30.024ZM21.0569 29.7078C21.2443 29.6531 21.4299 29.5942 21.6136 29.5312C21.7624 29.4802 21.9099 29.4265 22.0562 29.3702C25.7908 27.9319 28.6808 24.7795 29.7574 20.882C29.8505 20.5448 29.9301 20.2021 29.9955 19.8544C29.6403 19.8823 29.2903 19.9294 28.9468 19.9946C24.7403 20.7934 21.4861 24.3152 21.0943 28.6502C21.0681 28.9404 21.0547 29.2343 21.0547 29.5312C21.0547 29.5899 21.0558 29.6489 21.0569 29.7078ZM30.8066 12.8911C31.3085 14.3359 31.582 15.8865 31.582 17.5C31.582 25.2649 25.2649 31.582 17.5 31.582C9.7352 31.582 3.41797 25.2649 3.41797 17.5C3.41797 9.73513 9.7352 3.41797 17.5 3.41797C23.6471 3.41797 28.8861 7.37748 30.8026 12.8798C30.8041 12.8835 30.8052 12.8874 30.8066 12.8911ZM6.534 11.0712C6.31872 11.4371 6.12122 11.8145 5.94269 12.2025C6.35235 12.1213 6.76296 12.0444 7.17439 11.9718C10.5801 11.3711 14.0426 11.0664 17.4999 11.0664C20.9573 11.0664 24.4197 11.3711 27.8255 11.9718C28.237 12.0443 28.6476 12.1212 29.0572 12.2024C28.8787 11.8145 28.6812 11.437 28.4659 11.0712C26.2544 7.31299 22.1671 4.78516 17.5 4.78516C12.8329 4.78516 8.7456 7.31294 6.534 11.0712ZM26.6304 19.257C27.0345 17.1351 26.6796 14.8932 25.6405 13.0087C22.9447 12.6272 20.2208 12.4335 17.5 12.4335C14.7792 12.4335 12.0552 12.6273 9.35942 13.0087C8.32057 14.893 7.96551 17.1354 8.36965 19.257C11.49 20.5162 13.9095 23.1572 14.8663 26.4178C16.577 26.9214 18.4229 26.9214 20.1337 26.4178C21.0905 23.1571 23.51 20.5162 26.6304 19.257Z" fill="#239FDA"/>
<path fill-rule="evenodd" clip-rule="evenodd" d="M17.5 20.918C15.6153 20.918 14.082 19.3847 14.082 17.5C14.082 15.6153 15.6153 14.082 17.5 14.082C19.3847 14.082 20.918 15.6153 20.918 17.5C20.918 19.3847 19.3847 20.918 17.5 20.918ZM19.5508 17.5C19.5508 16.3692 18.6308 15.4492 17.5 15.4492C16.3692 15.4492 15.4492 16.3692 15.4492 17.5C15.4492 18.6308 16.3692 19.5508 17.5 19.5508C18.6308 19.5508 19.5508 18.6308 19.5508 17.5Z" fill="#239FDA"/>
<path d="M5.60881 6.29272C5.78388 6.29272 5.95895 6.22587 6.09245 6.09236C6.3594 5.82542 6.3594 5.39257 6.09245 5.12562C5.82551 4.85868 5.39273 4.85868 5.12571 5.12562L5.12537 5.12596C4.85843 5.39291 4.85856 5.82555 5.12551 6.0925C5.25895 6.22607 5.43388 6.29272 5.60881 6.29272Z" fill="#239FDA"/>
</svg>
