<svg width="35" height="35" viewBox="0 0 35 35" fill="none" xmlns="http://www.w3.org/2000/svg">
<path d="M17.4734 7.54395C22.4271 7.54395 26.4743 11.5911 26.4743 16.5449C26.4743 19.1351 25.3411 21.6281 23.4308 23.3118C22.0062 24.7364 22.1357 27.7798 22.1681 27.8122C22.1681 27.9741 22.1357 28.1036 22.0062 28.2331C21.9091 28.3303 21.7472 28.395 21.6177 28.395H13.3614C13.1996 28.395 13.0701 28.3303 12.9729 28.2331C12.8758 28.136 12.811 27.9741 12.811 27.8122C12.811 27.7798 12.9729 24.7364 11.5483 23.3118C11.5159 23.2794 11.4836 23.247 11.4512 23.2146C9.57329 21.4986 8.47245 19.0703 8.47245 16.5449C8.47245 11.5911 12.5196 7.54395 17.4734 7.54395ZM12.293 22.4699C12.3254 22.5023 12.3901 22.5671 12.3901 22.5995C13.6528 23.9593 13.8795 26.1933 13.9119 27.2618H21.0673C21.0997 26.1933 21.3263 23.8622 22.6861 22.4699C24.4021 20.9806 25.4058 18.8113 25.4058 16.5125C25.4058 12.1415 21.8767 8.6124 17.5058 8.6124C13.1348 8.6124 9.60567 12.1415 9.60567 16.5125C9.60567 18.8113 10.577 20.9806 12.293 22.4699Z" fill="#239FDA"/>
<path d="M17.5057 9.84277C17.7971 9.84277 18.0562 10.1018 18.0562 10.3932C18.0562 10.6846 17.7971 10.9436 17.5057 10.9436C14.2356 10.9436 11.613 13.5986 11.613 16.8363C11.613 17.1277 11.354 17.3867 11.0626 17.3867C10.7712 17.3867 10.5122 17.1277 10.5122 16.8363C10.4798 12.9834 13.6204 9.84277 17.5057 9.84277Z" fill="#239FDA"/>
<path d="M13.9118 29.0101H21.0996C21.8443 29.0101 22.4595 29.6253 22.4595 30.37C22.4595 31.1147 21.8443 31.7298 21.0996 31.7298H13.9442C13.1672 31.6975 12.552 31.1147 12.552 30.37C12.552 29.6253 13.1672 29.0101 13.9118 29.0101ZM13.9118 30.5966H21.0996C21.2291 30.5966 21.3586 30.4995 21.3586 30.3376C21.3586 30.1757 21.2615 30.0786 21.0996 30.0786H13.9442C13.8147 30.0786 13.6852 30.1757 13.6852 30.3376C13.6852 30.4995 13.7823 30.5966 13.9118 30.5966Z" fill="#239FDA"/>
<path d="M14.9803 32.2803H20.0312C20.7759 32.2803 21.3911 32.8954 21.3911 33.6401C21.3911 34.3848 20.7759 35 20.0312 35H14.9803C14.2356 35 13.6205 34.3848 13.6205 33.6401C13.6205 32.8631 14.2356 32.2803 14.9803 32.2803ZM14.9803 33.8668H20.0312C20.1607 33.8668 20.2902 33.7696 20.2902 33.6078C20.2902 33.4459 20.1931 33.3487 20.0312 33.3487H14.9803C14.8508 33.3487 14.7213 33.4459 14.7213 33.6078C14.7213 33.7696 14.8508 33.8668 14.9803 33.8668Z" fill="#239FDA"/>
<path d="M17.5057 4.85662C17.1819 4.85662 16.9553 4.5976 16.9553 4.3062V0.550417C16.9553 0.25902 17.2143 0 17.5057 0C17.7971 0 18.0562 0.25902 18.0562 0.550417V4.3062C18.0562 4.5976 17.7971 4.85662 17.5057 4.85662Z" fill="#239FDA"/>
<path d="M8.34293 2.78446C8.60195 2.59019 8.92572 2.68732 9.08761 2.91397L11.1598 6.0222C11.354 6.28122 11.2893 6.63737 11.0302 6.79926C10.9331 6.86401 10.836 6.89639 10.7388 6.89639C10.5446 6.89639 10.3827 6.79926 10.2856 6.63737L8.21342 3.52914C8.01916 3.3025 8.08391 2.94634 8.34293 2.78446Z" fill="#239FDA"/>
<path d="M24.0783 6.76678C23.9812 6.76678 23.8841 6.7344 23.7869 6.66965C23.5279 6.50776 23.4632 6.15161 23.6251 5.89259L25.6325 2.75198C25.7943 2.49296 26.1505 2.4282 26.4095 2.59009C26.6685 2.75198 26.7333 3.10813 26.5714 3.36715L24.564 6.50776C24.4345 6.70202 24.2726 6.76678 24.0783 6.76678Z" fill="#239FDA"/>
<path d="M27.996 10.199L31.2661 8.4182C31.5252 8.28869 31.8813 8.38582 32.0108 8.64484C32.1727 8.90386 32.0756 9.26001 31.7842 9.38952L28.5141 11.1703C28.4169 11.2027 28.3522 11.235 28.255 11.235C28.0608 11.235 27.8665 11.1379 27.7694 10.9436C27.6399 10.6846 27.737 10.3285 27.996 10.199Z" fill="#239FDA"/>
<path d="M2.96825 8.64484C3.09776 8.38582 3.45391 8.28869 3.71293 8.4182L7.01544 10.199C7.27446 10.3285 7.37159 10.6846 7.24208 10.9436C7.14495 11.1379 6.95068 11.235 6.75642 11.235C6.65928 11.235 6.56215 11.2027 6.4974 11.1703L3.1949 9.38952C2.93588 9.26001 2.83874 8.90386 2.96825 8.64484Z" fill="#239FDA"/>
</svg>
