<svg width="35" height="35" viewBox="0 0 35 35" fill="none" xmlns="http://www.w3.org/2000/svg">
<path d="M34.3164 21.0491H31.582C31.3637 21.0491 31.1697 21.1518 31.0445 21.3113H28.7198C29.0767 20.0333 29.2579 18.7081 29.2579 17.3689C29.2579 13.4613 27.7362 9.78777 24.9732 7.02469C22.21 4.26167 18.5364 2.73999 14.6289 2.73999H0.683594C0.306113 2.73999 0 3.04604 0 3.42358C0 3.80113 0.306113 4.10718 0.683594 4.10718H8.43705C6.91339 4.81969 5.50942 5.79996 4.2847 7.02469C1.52168 9.78777 0 13.4615 0 17.3689C0 21.2764 1.52168 24.95 4.2847 27.7131C6.97355 30.402 10.5249 31.9147 14.3147 31.994C14.3383 31.9964 14.3622 31.9978 14.3865 31.9978H31.0445C31.1697 32.1572 31.3637 32.26 31.582 32.26H34.3164C34.6939 32.26 35 31.9539 35 31.5764V21.7326C35 21.3551 34.6939 21.0491 34.3164 21.0491ZM30.8984 30.6307H14.6289C7.31637 30.6307 1.36719 24.6815 1.36719 17.369C1.36719 10.0564 7.31637 4.10725 14.6289 4.10725C21.9414 4.10725 27.8906 10.0564 27.8906 17.369C27.8906 18.6439 27.7101 19.9045 27.3542 21.1155C27.335 21.1808 27.3264 21.2467 27.3267 21.3113H25.4298C25.0523 21.3113 24.7462 21.6174 24.7462 21.9949C24.7462 22.3725 25.0523 22.6785 25.4298 22.6785H30.8984V30.6307ZM33.6328 30.8928H32.2656V22.4163H33.6328V30.8928Z" fill="#239FDA"/>
<path d="M21.1677 13.6592C21.1596 13.6421 21.1514 13.6252 21.1418 13.6087C21.1306 13.5892 21.1185 13.5706 21.1056 13.5527C19.7957 11.338 17.3831 9.84937 14.6289 9.84937C10.4826 9.84937 7.10938 13.2226 7.10938 17.3689C7.10938 21.5152 10.4826 24.8884 14.6289 24.8884C17.3903 24.8884 19.8084 23.392 21.1159 21.1678C21.1245 21.1549 21.1339 21.1428 21.1418 21.1291C21.1513 21.1126 21.1596 21.0956 21.1676 21.0786C21.7915 19.9833 22.1484 18.7171 22.1484 17.3689C22.1484 16.0207 21.7915 14.7545 21.1677 13.6592ZM15.3126 11.2548C17.0585 11.4486 18.5863 12.376 19.58 13.7211L16.2096 15.667C15.9563 15.4317 15.6509 15.2518 15.3126 15.1474V11.2548ZM13.9453 11.2548V15.1474C13.6069 15.2517 13.3016 15.4317 13.0483 15.667L9.67784 13.7211C10.6715 12.376 12.1993 11.4486 13.9453 11.2548ZM8.99254 19.8337C8.66106 19.0786 8.47656 18.245 8.47656 17.3689C8.47656 16.4929 8.661 15.6592 8.99254 14.9041L12.3637 16.8504C12.3255 17.0173 12.3047 17.1906 12.3047 17.3689C12.3047 17.5472 12.3255 17.7205 12.3637 17.8874L8.99254 19.8337ZM13.9452 23.4831C12.1993 23.2892 10.6715 22.3618 9.67784 21.0168L13.0482 19.0708C13.3015 19.3062 13.6069 19.4861 13.9452 19.5904V23.4831ZM14.6289 18.3259C14.1012 18.3259 13.6719 17.8966 13.6719 17.3689C13.6719 16.8412 14.1012 16.4119 14.6289 16.4119C15.1566 16.4119 15.5859 16.8412 15.5859 17.3689C15.5859 17.8966 15.1566 18.3259 14.6289 18.3259ZM15.3125 23.4831V19.5904C15.6509 19.4861 15.9562 19.3062 16.2095 19.0708L19.5799 21.0168C18.5863 22.3618 17.0585 23.2892 15.3125 23.4831ZM20.2653 19.8337L16.8941 17.8874C16.9323 17.7205 16.9531 17.5472 16.9531 17.3689C16.9531 17.1906 16.9323 17.0173 16.8941 16.8504L20.2653 14.9041C20.5968 15.6592 20.7812 16.4929 20.7812 17.3689C20.7812 18.245 20.5968 19.0786 20.2653 19.8337Z" fill="#239FDA"/>
<path d="M12.7928 27.733C9.27527 27.1144 6.3391 24.777 4.93855 21.4804C4.79083 21.1329 4.38956 20.9709 4.04209 21.1186C3.69462 21.2662 3.5326 21.6676 3.68019 22.0151C4.44582 23.8172 5.66118 25.4198 7.19468 26.6497C8.74829 27.8957 10.6021 28.7359 12.5559 29.0795C12.596 29.0865 12.6358 29.09 12.6751 29.09C13.0008 29.09 13.2892 28.8564 13.3476 28.5247C13.413 28.1529 13.1646 27.7985 12.7928 27.733Z" fill="#239FDA"/>
<path d="M4.30823 19.4367L4.29654 19.3773C4.22456 19.0067 3.86588 18.765 3.49516 18.8365C3.12452 18.9085 2.88246 19.2673 2.95444 19.6379L2.96709 19.7022C3.03155 20.0278 3.31722 20.2531 3.63694 20.2531C3.68096 20.2532 3.72567 20.2489 3.77045 20.24C4.14082 20.1667 4.38158 19.807 4.30823 19.4367Z" fill="#239FDA"/>
<path d="M23.5203 21.5114C23.3933 21.3843 23.2169 21.3112 23.0371 21.3112C22.8573 21.3112 22.681 21.3843 22.5538 21.5114C22.4267 21.6386 22.3535 21.815 22.3535 21.9948C22.3535 22.1745 22.4266 22.3509 22.5538 22.4781C22.681 22.6052 22.8573 22.6783 23.0371 22.6783C23.2169 22.6783 23.3933 22.6052 23.5203 22.4781C23.6475 22.3509 23.7207 22.1745 23.7207 21.9948C23.7207 21.815 23.6476 21.6386 23.5203 21.5114Z" fill="#239FDA"/>
</svg>
