<svg width="23" height="35" viewBox="0 0 23 35" fill="none" xmlns="http://www.w3.org/2000/svg">
<path d="M21.3587 22.2125C20.5196 21.3554 19.4103 20.8533 18.2198 20.7857C17.7287 20.4717 17.1555 20.2718 16.5357 20.2232C16.0721 19.8622 15.4902 19.6464 14.8585 19.6464H14.5358V11.9911C16.5263 10.9099 17.8806 8.80045 17.8806 6.38066C17.8806 4.88428 17.3518 3.42932 16.3916 2.28402C16.2096 2.06698 15.8862 2.03855 15.6693 2.22052C15.4524 2.40242 15.4239 2.72583 15.6058 2.9428C16.4115 3.90387 16.8552 5.12483 16.8552 6.38073C16.8552 9.33324 14.4528 11.7353 11.5 11.7353C8.54704 11.7353 6.14469 9.33324 6.14469 6.38073C6.14469 3.42774 8.54704 1.02539 11.5 1.02539C12.4412 1.02539 13.3671 1.27299 14.1774 1.74132C14.4225 1.88303 14.7362 1.79915 14.8778 1.55401C15.0195 1.30888 14.9356 0.995244 14.6905 0.853535C13.7244 0.295176 12.6211 0 11.5 0C7.98164 0 5.1193 2.86234 5.1193 6.38066C5.1193 8.80045 6.47363 10.9099 8.46412 11.9911V19.6465H8.14147C7.50976 19.6465 6.92781 19.8623 6.4642 20.2233C5.84439 20.2718 5.27126 20.4717 4.78017 20.7858C3.58962 20.8534 2.48029 21.3555 1.64124 22.2126C0.761799 23.1108 0.277405 24.2981 0.277405 25.5555V30.2217C0.277405 32.8565 2.42095 35 5.05572 35H17.9442C20.579 35 22.7225 32.8565 22.7225 30.2217V25.5555C22.7225 24.2981 22.2382 23.1108 21.3587 22.2125ZM11.5 12.7606C12.2022 12.7606 12.878 12.6463 13.5104 12.4359V22.5463C13.5104 23.6549 12.6085 24.5567 11.5 24.5567C10.3914 24.5567 9.48951 23.6549 9.48951 22.5463V12.4359C10.1219 12.6463 10.7978 12.7606 11.5 12.7606ZM8.14147 20.6719H8.46412V22.5463C8.46412 24.2203 9.82598 25.5821 11.5 25.5821C13.1739 25.5821 14.5358 24.2203 14.5358 22.5463V20.6719H14.8585C15.8015 20.6719 16.5689 21.4391 16.5689 22.3822V24.8138C16.5689 25.7569 15.8015 26.5241 14.8585 26.5241H8.14147C7.19838 26.5241 6.43112 25.7569 6.43112 24.8138V22.3822C6.43112 21.4391 7.19838 20.6719 8.14147 20.6719ZM21.6971 30.2217C21.6971 32.2911 20.0136 33.9746 17.9442 33.9746H5.05572C2.98635 33.9746 1.3028 32.2911 1.3028 30.2217V25.5555C1.3028 24.5678 1.68322 23.6354 2.37392 22.9299C2.71366 22.5828 3.10988 22.31 3.54197 22.1195C3.26252 22.6373 3.104 23.2312 3.104 23.8643V27.2993C3.104 28.8643 4.09883 30.2544 5.57949 30.7583C5.63425 30.7769 5.68996 30.7858 5.74472 30.7858C5.95821 30.7858 6.15747 30.6515 6.23007 30.4382C6.32126 30.1701 6.17798 29.8789 5.90988 29.7876C4.8449 29.4252 4.12939 28.4252 4.12939 27.2993V23.8643C4.12939 22.8454 4.6982 21.9669 5.54203 21.5306C5.45392 21.7988 5.40566 22.0849 5.40566 22.3822V24.8138C5.40566 26.3223 6.63291 27.5495 8.1414 27.5495H14.8584C16.3669 27.5495 17.5942 26.3223 17.5942 24.8138V22.3822C17.5942 22.0849 17.5459 21.7988 17.4578 21.5306C18.3017 21.9669 18.8705 22.8454 18.8705 23.8643V27.2993C18.8705 28.7479 17.692 29.9264 16.2434 29.9264H7.7819C7.49875 29.9264 7.2692 30.1559 7.2692 30.4391C7.2692 30.7222 7.49875 30.9518 7.7819 30.9518H16.2434C18.2574 30.9518 19.8959 29.3133 19.8959 27.2993V23.8643C19.8959 23.2312 19.7374 22.6373 19.458 22.1195C19.8901 22.31 20.2863 22.5828 20.626 22.9299C21.3167 23.6354 21.6971 24.5678 21.6971 25.5555V30.2217Z" fill="#239FDA"/>
</svg>
