<svg width="35" height="35" viewBox="0 0 35 35" fill="none" xmlns="http://www.w3.org/2000/svg">
<path d="M23.9071 3.08707L23.8011 2.98101L21.6257 0.805743L21.7318 0.699675L21.6257 0.805741C20.7514 -0.0685782 19.3284 -0.0685838 18.454 0.805745L0.80574 18.4535C-0.0685804 19.3278 -0.0685804 20.7507 0.805741 21.6251L2.98107 23.8003L3.08714 23.9064L2.98107 24.0124L0.80574 26.1877C0.463871 26.5296 0.463871 27.0839 0.805741 27.4258L7.57339 34.1932C7.91525 34.5351 8.46956 34.5351 8.81151 34.1932L10.9868 32.0179L11.0929 31.9119L11.199 32.0179L13.3743 34.1932C13.7981 34.617 14.3608 34.8501 14.9602 34.8501C15.5596 34.85 16.1223 34.6169 16.5459 34.1932L16.652 34.2993L16.546 34.1932L18.4738 32.2655L18.4767 32.2626M23.9071 3.08707L18.4767 32.2626M23.9071 3.08707L24.0132 2.98101L26.1885 0.805743L26.0825 0.699675L23.9071 3.08707ZM18.4767 32.2626C18.477 32.2623 18.4773 32.2619 18.4777 32.2616L18.4767 32.2626ZM18.4729 32.2669C18.4744 32.2651 18.4764 32.2629 18.4787 32.2605C18.4769 32.2623 18.4749 32.2645 18.4729 32.2669ZM18.4729 32.2669C18.4721 32.2677 18.4714 32.2686 18.4707 32.2695L18.4705 32.2697C18.4711 32.2689 18.4719 32.268 18.4729 32.2669ZM32.2591 18.4806L32.3666 18.5852L32.2605 18.4792L32.2596 18.4801L32.2593 18.4804L32.2592 18.4805L32.2591 18.4806L32.2591 18.4806ZM32.2608 18.4789L32.3473 18.5654L32.3474 18.5654L32.3669 18.5849L32.2616 18.4781L32.2614 18.4783L32.2608 18.4789ZM27.4267 0.8057L27.5328 0.699607L27.4267 0.805674L27.4267 0.8057ZM10.5035 22.8335L10.3974 22.9396L10.5035 23.0456L11.9537 24.4959L12.0598 24.6019L12.1658 24.4959L24.4966 12.1654L24.6027 12.0594L24.4966 11.9533L23.0464 10.5031L22.9403 10.3971L22.8343 10.5031L10.5035 22.8335ZM13.4039 25.7339L13.2978 25.8399L13.4039 25.946L14.8541 27.3962L14.9601 27.5022L15.0662 27.3962L27.397 15.0657L27.5031 14.9596L27.397 14.8536L25.9467 13.4034L25.8407 13.2973L25.7346 13.4034L13.4039 25.7339ZM21.5961 9.26508L21.7022 9.15901L21.5961 9.05294L20.1459 7.60277L20.0398 7.49671L19.9338 7.60277L7.60298 19.9332L7.4969 20.0392L7.60298 20.1453L9.05322 21.5955L9.15928 21.7015L9.26535 21.5955L21.5961 9.26508ZM16.3043 28.6341L16.1982 28.7402L16.3043 28.8463L17.7545 30.2964L17.8605 30.4025L17.9666 30.2965L30.2975 17.9661L30.4035 17.86L30.2975 17.7539L28.8472 16.3038L28.7412 16.1977L28.6351 16.3038L16.3043 28.6341ZM18.6957 6.36473L18.8018 6.25866L18.6957 6.15259L17.2456 4.70242L17.1395 4.59635L17.0334 4.70242L4.70256 17.0328L4.59648 17.1389L4.70256 17.2449L6.1528 18.6951L6.25886 18.8012L6.36493 18.6951L18.6957 6.36473ZM8.08641 32.2301L8.19248 32.3361L8.29854 32.2301L9.74879 30.7799L9.85486 30.6738L9.74879 30.5678L4.43131 25.2505L4.32525 25.1444L4.21919 25.2505L2.76894 26.7007L2.66287 26.8067L2.76894 26.9128L8.08641 32.2301ZM15.2911 32.9696L15.3 32.963L15.3078 32.9552L16.5164 31.7466L16.6224 31.6406L16.5164 31.5345L3.46451 18.483L3.35845 18.377L3.25238 18.483L2.04388 19.6915C2.04387 19.6915 2.04386 19.6915 2.04386 19.6915C1.85197 19.8833 1.85197 20.1952 2.04385 20.387C2.04386 20.387 2.04387 20.387 2.04388 20.387L14.6123 32.9552L14.6202 32.963L14.6291 32.9696C14.7301 33.0445 14.8364 33.1056 14.9601 33.1056C15.0838 33.1056 15.19 33.0445 15.2911 32.9696ZM32.9562 15.3074L32.8501 15.2014L32.9562 15.3074C33.148 15.1156 33.148 14.8037 32.9562 14.6119L32.8501 14.718L32.9562 14.6119L20.3877 2.04378L20.3877 2.04376C20.1958 1.85198 19.884 1.85198 19.6921 2.04376L19.6921 2.04378L18.4836 3.25224L18.3775 3.35831L18.4836 3.46438L31.5355 16.5159L31.6416 16.6219L31.7477 16.5159L32.9562 15.3074ZM32.2311 8.29827L32.3372 8.1922L32.2311 8.08614L26.9136 2.76887L26.8076 2.66281L26.7015 2.76887L25.2512 4.21905L25.1452 4.32511L25.2512 4.43118L30.5687 9.74845L30.6748 9.85451L30.7808 9.74845L32.2311 8.29827ZM18.4678 32.273C18.4676 32.2732 18.468 32.2728 18.4686 32.272L18.468 32.2727L18.4678 32.273Z" fill="#239FDA" stroke="#FCFCFC" stroke-width="0.3"/>
</svg>
