<svg width="33" height="35" viewBox="0 0 33 35" fill="none" xmlns="http://www.w3.org/2000/svg">
<mask id="path-1-inside-1" fill="white">
<path d="M32.1864 25.8768L31.7384 23.8304L29.2681 24.3712L26.471 22.5789L29.7889 21.8525L29.3408 19.806L23.9765 20.9805L21.7374 19.5458V15.4502L23.9713 14.0001L29.3425 15.1429L29.7785 13.0938L26.4563 12.387L29.2428 10.5782L31.7162 11.1044L32.1522 9.0554L30.2789 8.65681L30.6774 6.78354L28.6283 6.34758L28.1021 8.82105L25.3156 10.6299L26.0225 7.30768L23.9734 6.87173L22.8306 12.243L20.6222 13.6765L17.5474 12.1391V9.55434L21.4304 5.67127L19.9491 4.18996L17.5474 6.59171V3.26959L19.3355 1.48144L17.8542 0.00012207L16.4999 1.35435L15.1457 0.00012207L13.6644 1.48144L15.4525 3.26959V6.59171L13.0508 4.18996L11.5695 5.67127L15.4525 9.55434V12.1392L12.3741 13.6784L10.1537 12.2557L8.97918 6.89135L6.93272 7.33939L7.65917 10.6573L4.86204 8.86505L4.32113 6.39479L2.27481 6.84282L2.68444 8.71372L0.813538 9.12335L1.26157 11.1698L3.73183 10.629L6.52896 12.4212L3.21103 13.1477L3.65913 15.1941L9.02345 14.0197L11.2626 15.4544V19.55L9.02862 21.0001L3.65732 19.8574L3.22137 21.9064L6.54356 22.6132L3.75718 24.422L1.28378 23.8957L0.847824 25.9448L2.7211 26.3434L2.32258 28.2166L4.37169 28.6526L4.89793 26.1791L7.68438 24.3703L6.97755 27.6925L9.02659 28.1284L10.1694 22.7572L12.3778 21.3237L15.4526 22.8611V25.4459L11.5695 29.329L13.0508 30.8103L15.4525 28.4086V31.7307L13.6644 33.5188L15.1457 35.0001L16.5 33.6459L17.8542 35.0001L19.3355 33.5188L17.5475 31.7307V28.4086L19.9491 30.8103L21.4305 29.329L17.5475 25.4459V22.8611L20.6259 21.3218L22.8462 22.7446L24.0208 28.109L26.0672 27.6609L25.3408 24.343L28.1379 26.1353L28.6788 28.6055L30.7253 28.1574L30.3156 26.2865L32.1864 25.8768ZM19.6423 19.4714L16.4999 21.0426L13.3576 19.4714V15.5288L16.4999 13.9577L19.6423 15.5288V19.4714Z"/>
</mask>
<path d="M32.1864 25.8768L31.7384 23.8304L29.2681 24.3712L26.471 22.5789L29.7889 21.8525L29.3408 19.806L23.9765 20.9805L21.7374 19.5458V15.4502L23.9713 14.0001L29.3425 15.1429L29.7785 13.0938L26.4563 12.387L29.2428 10.5782L31.7162 11.1044L32.1522 9.0554L30.2789 8.65681L30.6774 6.78354L28.6283 6.34758L28.1021 8.82105L25.3156 10.6299L26.0225 7.30768L23.9734 6.87173L22.8306 12.243L20.6222 13.6765L17.5474 12.1391V9.55434L21.4304 5.67127L19.9491 4.18996L17.5474 6.59171V3.26959L19.3355 1.48144L17.8542 0.00012207L16.4999 1.35435L15.1457 0.00012207L13.6644 1.48144L15.4525 3.26959V6.59171L13.0508 4.18996L11.5695 5.67127L15.4525 9.55434V12.1392L12.3741 13.6784L10.1537 12.2557L8.97918 6.89135L6.93272 7.33939L7.65917 10.6573L4.86204 8.86505L4.32113 6.39479L2.27481 6.84282L2.68444 8.71372L0.813538 9.12335L1.26157 11.1698L3.73183 10.629L6.52896 12.4212L3.21103 13.1477L3.65913 15.1941L9.02345 14.0197L11.2626 15.4544V19.55L9.02862 21.0001L3.65732 19.8574L3.22137 21.9064L6.54356 22.6132L3.75718 24.422L1.28378 23.8957L0.847824 25.9448L2.7211 26.3434L2.32258 28.2166L4.37169 28.6526L4.89793 26.1791L7.68438 24.3703L6.97755 27.6925L9.02659 28.1284L10.1694 22.7572L12.3778 21.3237L15.4526 22.8611V25.4459L11.5695 29.329L13.0508 30.8103L15.4525 28.4086V31.7307L13.6644 33.5188L15.1457 35.0001L16.5 33.6459L17.8542 35.0001L19.3355 33.5188L17.5475 31.7307V28.4086L19.9491 30.8103L21.4305 29.329L17.5475 25.4459V22.8611L20.6259 21.3218L22.8462 22.7446L24.0208 28.109L26.0672 27.6609L25.3408 24.343L28.1379 26.1353L28.6788 28.6055L30.7253 28.1574L30.3156 26.2865L32.1864 25.8768ZM19.6423 19.4714L16.4999 21.0426L13.3576 19.4714V15.5288L16.4999 13.9577L19.6423 15.5288V19.4714Z" fill="#239FDA" stroke="#FCFCFC" stroke-width="0.6" mask="url(#path-1-inside-1)"/>
</svg>
