<svg width="24" height="24" viewBox="0 0 24 24" fill="none" xmlns="http://www.w3.org/2000/svg">
<path d="M21.8909 9.84375H21.0668C21.1449 9.62367 21.1877 9.38709 21.1877 9.14062C21.1877 8.60077 20.9837 8.10787 20.6489 7.73438C20.9837 7.36088 21.1877 6.86798 21.1877 6.32812C21.1877 5.41148 20.5999 4.62994 19.7815 4.33969V2.10938C19.7815 0.946266 18.8352 0 17.6721 0C16.509 0 15.5627 0.946266 15.5627 2.10938V4.33969C14.7444 4.62994 14.1565 5.41148 14.1565 6.32812C14.1565 6.86798 14.3606 7.36088 14.6953 7.73438C14.3606 8.10787 14.1565 8.60077 14.1565 9.14062C14.1565 9.38709 14.1994 9.62367 14.2774 9.84375H12.6565V3.51562C12.6565 1.57711 11.0794 0 9.14087 0H3.51587C1.57735 0 0.000244141 1.57711 0.000244141 3.51562V20.4844C0.000244141 22.4229 1.57735 24 3.51587 24H9.14087C11.0794 24 12.6565 22.4229 12.6565 20.4844V15.4688H21.8909C23.054 15.4688 24.0002 14.5225 24.0002 13.3594V11.9531C24.0002 10.79 23.054 9.84375 21.8909 9.84375ZM2.81274 22.4728C1.99435 22.1826 1.40649 21.401 1.40649 20.4844V3.51562C1.40649 2.59898 1.99435 1.81744 2.81274 1.52719C2.81274 3.86794 2.81274 20.5418 2.81274 22.4728ZM8.43774 22.5938H4.21899V22.0326L6.32837 20.6263L8.43774 22.0326V22.5938ZM8.43774 20.3424L6.71837 19.1962C6.48217 19.0388 6.17453 19.0388 5.93832 19.1962L4.21899 20.3424V17.7201L6.32837 16.3138L8.43774 17.7201V20.3424ZM8.43774 16.0299L6.71837 14.8837C6.48217 14.7263 6.17453 14.7263 5.93832 14.8837L4.21899 16.0299V13.5013L6.32837 12.0951L8.43774 13.5013V16.0299ZM8.43774 11.8112L6.71837 10.665C6.48217 10.5075 6.17453 10.5075 5.93832 10.665L4.21899 11.8112V9.28256L6.32837 7.87631L8.43774 9.28256V11.8112ZM8.43774 7.59244L6.71837 6.4462C6.48217 6.2888 6.17453 6.2888 5.93832 6.4462L4.21899 7.59244V5.06381L6.32837 3.65756L8.43774 5.06381V7.59244ZM8.43774 3.37369L6.71837 2.22745C6.48217 2.07005 6.17453 2.07005 5.93832 2.22745L4.21899 3.37369V1.40625H8.43774V3.37369ZM11.2502 20.4844C11.2502 21.401 10.6624 22.1826 9.84399 22.4728C9.84399 14.1413 9.84399 16.5748 9.84399 1.52719C10.6624 1.81744 11.2502 2.59898 11.2502 3.51562V20.4844ZM16.969 2.10938C16.969 1.72167 17.2844 1.40625 17.6721 1.40625C18.0598 1.40625 18.3752 1.72167 18.3752 2.10938V4.21875H16.969V2.10938ZM16.2659 5.625H19.0784C19.4661 5.625 19.7815 5.94042 19.7815 6.32812C19.7815 6.71583 19.4661 7.03125 19.0784 7.03125H16.2659C15.8782 7.03125 15.5627 6.71583 15.5627 6.32812C15.5627 5.94042 15.8782 5.625 16.2659 5.625ZM16.2659 8.4375H19.0784C19.4661 8.4375 19.7815 8.75292 19.7815 9.14062C19.7815 9.52833 19.4661 9.84375 19.0784 9.84375H16.2659C15.8782 9.84375 15.5627 9.52833 15.5627 9.14062C15.5627 8.75292 15.8782 8.4375 16.2659 8.4375ZM22.594 13.3594C22.594 13.7471 22.2786 14.0625 21.8909 14.0625H12.6565V11.25C13.6174 11.25 20.942 11.25 21.8909 11.25C22.2786 11.25 22.594 11.5654 22.594 11.9531V13.3594Z" fill="#239FDA"/>
</svg>
