<svg width="28" height="28" viewBox="0 0 28 28" fill="none" xmlns="http://www.w3.org/2000/svg">
<path d="M27.3144 16.4721L17.4707 14.8314C17.0238 14.7569 16.6012 15.0588 16.5267 15.5057C16.4522 15.9526 16.7541 16.3753 17.201 16.4498L27.0447 18.0904C27.0903 18.098 27.1357 18.1016 27.1805 18.1016C27.5743 18.1016 27.9218 17.8173 27.9887 17.4161C28.0632 16.9692 27.7613 16.5466 27.3144 16.4721Z" fill="#239FDA"/>
<path d="M27.3144 13.1908L17.4707 11.5502C17.0238 11.4756 16.6012 11.7776 16.5267 12.2245C16.4522 12.6714 16.7541 13.094 17.201 13.1685L27.0447 14.8091C27.0903 14.8167 27.1357 14.8204 27.1805 14.8204C27.5743 14.8204 27.9218 14.536 27.9887 14.1348C28.0632 13.688 27.7613 13.2653 27.3144 13.1908Z" fill="#239FDA"/>
<path d="M27.3144 9.90959L17.4707 8.26898C17.0238 8.1945 16.6012 8.49637 16.5267 8.94327C16.4522 9.39018 16.7541 9.8128 17.201 9.88728L27.0447 11.5279C27.0903 11.5355 27.1357 11.5392 27.1805 11.5392C27.5743 11.5392 27.9218 11.2548 27.9887 10.8536C28.0632 10.4067 27.7613 9.98408 27.3144 9.90959Z" fill="#239FDA"/>
<path d="M27.3144 19.7533L17.4707 18.1127C17.0238 18.0382 16.6012 18.3401 16.5267 18.787C16.4522 19.2339 16.7541 19.6565 17.201 19.731L27.0447 21.3716C27.0903 21.3792 27.1357 21.3829 27.1805 21.3829C27.5743 21.3829 27.9218 21.0985 27.9887 20.6973C28.0632 20.2505 27.7613 19.8278 27.3144 19.7533Z" fill="#239FDA"/>
<path d="M12.074 5.05623C11.5485 5.1013 11.0295 5.16588 10.5193 5.24857C10.5113 5.24999 10.5032 5.25092 10.4953 5.25256C7.85357 5.68393 5.4498 6.60875 3.60815 7.91829C1.28143 9.57279 0 11.7327 0 14C0 16.2673 1.28143 18.4272 3.60815 20.0817C5.44985 21.3913 7.85368 22.3161 10.4955 22.7475C10.503 22.7491 10.5107 22.7499 10.5182 22.7513C11.0288 22.8341 11.548 22.8986 12.0739 22.9438C13.5175 23.0676 14.7655 21.9289 14.7655 20.4842V7.51584C14.7655 6.0692 13.5158 4.93242 12.074 5.05623ZM9.84369 20.9559C7.81381 20.5192 5.98808 19.761 4.55889 18.7447C2.67699 17.4065 1.62968 15.7215 1.62968 14C1.62968 12.2785 2.67699 10.5935 4.55889 9.25533C5.98808 8.23908 7.81376 7.48079 9.84369 7.04417V20.9559ZM13.1249 20.4842C13.1249 20.9687 12.7036 21.3512 12.2142 21.3092C11.969 21.2881 11.7258 21.2622 11.4843 21.2323V6.76767C11.7258 6.73781 11.969 6.71183 12.2142 6.69083C12.7015 6.64911 13.1249 7.02935 13.1249 7.51584V20.4842Z" fill="#239FDA"/>
</svg>
