<svg width="24" height="24" viewBox="0 0 24 24" fill="none" xmlns="http://www.w3.org/2000/svg">
<circle cx="12" cy="12" r="12" fill="#239FDA"/>
<g clip-path="url(#clip0)">
<path d="M18.4302 8.05524L14.46 11.9999L18.4302 15.9445C18.5019 15.7945 18.5455 15.6287 18.5455 15.4516V8.54817C18.5455 8.37105 18.5019 8.20525 18.4302 8.05524Z" fill="white"/>
<path d="M17.3948 7.39774H6.60499C6.42788 7.39774 6.26207 7.44128 6.11206 7.51305L11.1864 12.5618C11.6351 13.0105 12.3647 13.0105 12.8134 12.5618L17.8877 7.51305C17.7377 7.44128 17.5719 7.39774 17.3948 7.39774Z" fill="white"/>
<path d="M5.5699 8.05524C5.49813 8.20525 5.45459 8.37105 5.45459 8.54817V15.4516C5.45459 15.6287 5.49813 15.7945 5.5699 15.9445L9.5401 11.9999L5.5699 8.05524Z" fill="white"/>
<path d="M13.9175 12.5424L13.3557 13.1042C12.6081 13.8518 11.3916 13.8518 10.644 13.1042L10.0823 12.5424L6.11206 16.487C6.26207 16.5588 6.42788 16.6023 6.60499 16.6023H17.3948C17.5719 16.6023 17.7377 16.5588 17.8877 16.487L13.9175 12.5424Z" fill="white"/>
</g>
<defs>
<clipPath id="clip0">
<rect width="13.0909" height="13.0909" fill="white" transform="translate(5.45459 5.45456)"/>
</clipPath>
</defs>
</svg>
