<svg width="24" height="24" viewBox="0 0 24 24" fill="none" xmlns="http://www.w3.org/2000/svg">
<circle cx="12" cy="12" r="12" fill="#239FDA"/>
<path d="M18.2914 15.8639L16.8402 14.8963L15.55 14.0364C15.3011 13.8708 14.9664 13.9251 14.7826 14.161L13.9843 15.1873C13.8128 15.41 13.5044 15.474 13.2585 15.3378C12.7168 15.0365 12.0762 14.7528 10.6629 13.3376C9.24954 11.9225 8.96403 11.2838 8.66271 10.7421C8.52656 10.4962 8.59056 10.1877 8.81325 10.0162L9.83952 9.21792C10.0754 9.03414 10.1298 8.69953 9.96412 8.45053L9.1306 7.20013L8.1366 5.70911C7.96742 5.45533 7.62874 5.37913 7.36719 5.53599L6.22082 6.22372C5.91102 6.40625 5.68328 6.70099 5.5848 7.04685C5.27131 8.18981 5.20811 10.7111 9.24885 14.7519C13.2896 18.7926 15.8107 18.7292 16.9537 18.4157C17.2995 18.3172 17.5943 18.0895 17.7768 17.7797L18.4645 16.6333C18.6214 16.3718 18.5452 16.0331 18.2914 15.8639Z" fill="white"/>
</svg>
