<svg width="24" height="24" viewBox="0 0 24 24" fill="none" xmlns="http://www.w3.org/2000/svg">
<circle cx="12" cy="12" r="12" fill="#8E55B7"/>
<path fill-rule="evenodd" clip-rule="evenodd" d="M18.0839 13.0326C18.4745 9.74512 17.8963 7.66966 16.8534 6.73094C15.1701 5.12785 9.48592 4.89003 7.4721 6.80239C6.56774 7.73785 6.2492 9.11076 6.21429 10.8104C6.17938 12.5106 6.13792 15.6955 9.10574 16.5595H9.10847L9.10574 17.8789C9.10574 17.8789 9.08556 18.4135 9.42701 18.5209C9.79479 18.6401 9.97295 18.427 11.0069 17.1901L11.209 16.9484C13.2403 17.1246 14.8003 16.7209 14.9776 16.662C15.0142 16.6498 15.0661 16.6361 15.1304 16.6192C15.7868 16.4468 17.7422 15.933 18.0839 13.0326ZM12.1206 7.7983C11.9106 7.7983 11.9106 8.12558 12.1206 8.1283C13.7499 8.14085 15.0917 9.27649 15.1064 11.3596C15.1064 11.5794 15.4282 11.5767 15.4255 11.3568H15.425C15.4075 9.1123 13.9424 7.81085 12.1206 7.7983ZM14.5829 11.022C14.5802 11.2418 14.2589 11.2315 14.2638 11.0144C14.2889 9.93058 13.6338 9.08185 12.3902 8.98749C12.1807 8.97221 12.2026 8.64221 12.4126 8.65749C13.8466 8.76494 14.6097 9.78439 14.5829 11.022ZM13.9203 12.4222C13.6508 12.2662 13.3765 12.3633 13.263 12.5166L13.0257 12.8237C12.9052 12.9797 12.6799 12.959 12.6799 12.959C11.0359 12.5242 10.5963 10.8039 10.5963 10.8039C10.5963 10.8039 10.5761 10.571 10.7266 10.4461L11.0234 10.2006C11.1717 10.0828 11.2656 9.79916 11.1145 9.52043C10.8101 8.97055 10.5811 8.69232 10.4277 8.50594L10.4277 8.50593C10.3777 8.44514 10.3357 8.39411 10.3017 8.34661C10.1566 8.16498 9.93847 8.12407 9.71156 8.2468H9.70665C9.23483 8.52279 8.71829 9.03934 8.88356 9.57116C8.93246 9.66839 8.98846 9.80251 9.05624 9.96483C9.37935 10.7386 9.97014 12.1535 11.3354 13.2699C12.1116 13.9086 13.3399 14.5632 13.8614 14.7142L13.8663 14.7219C14.3801 14.8932 14.8797 14.3564 15.1465 13.8704V13.8666C15.2648 13.6315 15.2256 13.409 15.0526 13.2633C14.7461 12.9644 14.2836 12.6344 13.9203 12.4222ZM13.4428 10.742C13.4156 10.1796 13.1614 9.90582 12.6372 9.87528C12.425 9.86273 12.4446 9.53273 12.6546 9.54528C13.3441 9.58346 13.727 9.99255 13.7619 10.7267C13.7717 10.9466 13.4527 10.9618 13.4428 10.742Z" fill="white"/>
</svg>
