<svg width="12" height="12" viewBox="0 0 12 12" fill="none" xmlns="http://www.w3.org/2000/svg">
<g clip-path="url(#clip0)">
<path d="M11.8944 2.38403L8.255 5.99995L11.8944 9.61586C11.9601 9.47835 12.0001 9.32634 12.0001 9.16401V2.83588C12.0001 2.67353 11.9601 2.52154 11.8944 2.38403Z" fill="#666666"/>
<path d="M10.9454 1.78125H1.05476C0.892405 1.78125 0.740413 1.82116 0.602905 1.88695L5.25438 6.515C5.66566 6.92629 6.33448 6.92629 6.74576 6.515L11.3972 1.88695C11.2597 1.82116 11.1077 1.78125 10.9454 1.78125Z" fill="#666666"/>
<path d="M0.105703 2.38403C0.0399141 2.52154 0 2.67353 0 2.83588V9.16401C0 9.32636 0.0399141 9.47838 0.105703 9.61586L3.74505 5.99995L0.105703 2.38403Z" fill="#666666"/>
<path d="M7.75788 6.49707L7.24289 7.01206C6.5576 7.69735 5.44251 7.69735 4.75723 7.01206L4.24226 6.49707L0.602905 10.113C0.740413 10.1788 0.892405 10.2187 1.05476 10.2187H10.9454C11.1077 10.2187 11.2597 10.1788 11.3972 10.113L7.75788 6.49707Z" fill="#666666"/>
</g>
<defs>
<clipPath id="clip0">
<rect width="12" height="12" fill="white"/>
</clipPath>
</defs>
</svg>
