<svg width="12" height="12" viewBox="0 0 12 12" fill="none" xmlns="http://www.w3.org/2000/svg">
<path d="M11.7671 9.54193L10.4368 8.65497L9.2542 7.86671C9.02596 7.71486 8.71924 7.76464 8.55075 7.98092L7.81897 8.92166C7.66178 9.1258 7.37901 9.18446 7.15359 9.05966C6.65705 8.78345 6.06987 8.52339 4.77431 7.22617C3.47875 5.92894 3.21703 5.34343 2.94082 4.84689C2.81601 4.62147 2.87468 4.3387 3.07882 4.18153L4.01956 3.44975C4.23582 3.28128 4.28562 2.97456 4.13377 2.7463L3.36972 1.60011L2.45855 0.233342C2.30347 0.000703602 1.99302 -0.0691394 1.75325 0.074648L0.702422 0.705063C0.418433 0.872381 0.209678 1.14257 0.119397 1.4596C-0.167966 2.50731 -0.225903 4.81853 3.47812 8.52255C7.18214 12.2266 9.49314 12.1684 10.5409 11.8811C10.8579 11.7908 11.1281 11.582 11.2954 11.298L11.9258 10.2472C12.0696 10.0074 11.9998 9.69701 11.7671 9.54193Z" fill="#666666"/>
</svg>
