<svg width="11" height="12" viewBox="0 0 11 12" fill="none" xmlns="http://www.w3.org/2000/svg">
<path fill-rule="evenodd" clip-rule="evenodd" d="M10.8782 6.94688C11.2359 3.93597 10.7064 2.03511 9.75119 1.17535C8.20952 -0.292885 3.00351 -0.510697 1.1591 1.24079C0.330813 2.09755 0.0390647 3.35497 0.00709225 4.91163C-0.0248802 6.46879 -0.0628475 9.38577 2.65531 10.1771H2.65781L2.65531 11.3855C2.65531 11.3855 2.63682 11.8751 2.94955 11.9735C3.28639 12.0827 3.44957 11.8875 4.39652 10.7546L4.58165 10.5333C6.44204 10.6946 7.87081 10.325 8.03317 10.271C8.06669 10.2598 8.11413 10.2473 8.173 10.2318L8.17309 10.2318L8.17317 10.2318L8.1732 10.2318C8.77434 10.0739 10.5652 9.60333 10.8782 6.94688ZM5.41622 2.15332C5.22389 2.15332 5.22389 2.45306 5.41622 2.45556C6.90844 2.46705 8.13738 3.50715 8.15086 5.41501C8.15086 5.61634 8.44561 5.61384 8.44311 5.41251H8.44261C8.42663 3.35678 7.08478 2.16481 5.41622 2.15332ZM7.67229 5.10458C7.66979 5.30591 7.37554 5.29641 7.38004 5.09759C7.40302 4.10494 6.80303 3.32761 5.66401 3.24119C5.47217 3.2272 5.49215 2.92496 5.68449 2.93895C6.99786 3.03736 7.69676 3.97106 7.67229 5.10458ZM7.0647 6.38761C6.81791 6.24473 6.56663 6.33365 6.46272 6.47403L6.24541 6.75529C6.135 6.89817 5.92868 6.87918 5.92868 6.87918C4.42298 6.48103 4.02033 4.90538 4.02033 4.90538C4.02033 4.90538 4.00185 4.69207 4.13973 4.57767L4.41149 4.35286C4.54738 4.24495 4.6333 3.98518 4.49492 3.7299C4.21618 3.22627 4.00645 2.97145 3.86595 2.80075C3.82012 2.74506 3.78166 2.69833 3.75056 2.65482C3.61768 2.48847 3.41785 2.451 3.21003 2.5634H3.20554C2.77341 2.81618 2.30032 3.28928 2.45169 3.77636C2.49647 3.86541 2.54776 3.98824 2.60984 4.13692C2.90577 4.84563 3.44686 6.14149 4.69725 7.16394C5.40813 7.74893 6.53316 8.34842 7.01075 8.4868L7.01524 8.49379C7.48584 8.65065 7.94344 8.15908 8.18773 7.71396V7.71047C8.29614 7.49515 8.26017 7.29133 8.1018 7.15794C7.82105 6.88418 7.39741 6.58194 7.0647 6.38761ZM6.6276 4.84931C6.60262 4.33425 6.36982 4.08347 5.88973 4.05549C5.69539 4.044 5.71338 3.74176 5.90571 3.75325C6.53718 3.78822 6.88788 4.1629 6.91985 4.83532C6.92884 5.03665 6.63659 5.05064 6.6276 4.84931Z" fill="#666666"/>
</svg>
