<svg width="114" height="29" viewBox="0 0 114 29" fill="none" xmlns="http://www.w3.org/2000/svg">
<g clip-path="url(#clip0)">
<path d="M26.2201 28.1742H8.14294C6.0913 28.1742 4.12369 27.3592 2.67296 25.9085C1.22224 24.4577 0.407227 22.4901 0.407227 20.4385C0.407227 18.3869 1.22224 16.4192 2.67296 14.9685C4.12369 13.5178 6.0913 12.7028 8.14294 12.7028L9.28294 12.7842C9.65059 10.9158 10.6552 9.23285 12.1254 8.02256C13.5955 6.81228 15.4401 6.14966 17.3444 6.14778C18.1894 6.14008 19.0295 6.2778 19.8279 6.55492C20.5443 4.83823 21.7191 3.35172 23.2238 2.25812C24.7285 1.16452 26.5051 0.506005 28.3591 0.35466C30.2131 0.203315 32.073 0.564977 33.7351 1.40005C35.3973 2.23513 36.7977 3.51142 37.7829 5.08921C37.8738 5.2309 37.9359 5.3891 37.9657 5.55478C37.9954 5.72047 37.9923 5.89039 37.9563 6.05485C37.9204 6.21931 37.8525 6.37508 37.7563 6.51328C37.6602 6.65148 37.5378 6.76939 37.3961 6.86028C37.2545 6.95117 37.0963 7.01327 36.9306 7.04302C36.7649 7.07278 36.595 7.06961 36.4305 7.03369C36.266 6.99777 36.1103 6.92981 35.9721 6.8337C35.8339 6.73758 35.716 6.61518 35.6251 6.47349C34.8411 5.21519 33.7051 4.21467 32.3578 3.59598C31.0106 2.9773 29.5113 2.76768 28.0461 2.99311C26.5808 3.21854 25.2139 3.8691 24.1149 4.86413C23.0159 5.85916 22.2331 7.15489 21.8636 8.59064L21.4565 10.1785L19.9908 9.40492C19.1356 8.93923 18.1742 8.70377 17.2006 8.72162C16.227 8.73948 15.2748 9.01005 14.4373 9.5068C13.5998 10.0035 12.9058 10.7094 12.4233 11.5552C11.9409 12.401 11.6864 13.3576 11.6851 14.3314V16.2449L9.93437 15.5935C9.35929 15.3868 8.75396 15.2768 8.14294 15.2678C6.77158 15.2678 5.45639 15.8126 4.48669 16.7822C3.517 17.7519 2.97223 19.0671 2.97223 20.4385C2.97223 21.8099 3.517 23.125 4.48669 24.0947C5.45639 25.0644 6.77158 25.6092 8.14294 25.6092H26.2201C26.3912 25.6092 26.5606 25.6429 26.7187 25.7084C26.8767 25.7739 27.0204 25.8698 27.1413 25.9908C27.2623 26.1118 27.3583 26.2554 27.4238 26.4135C27.4892 26.5716 27.5229 26.741 27.5229 26.9121C27.523 27.0813 27.4891 27.2488 27.4231 27.4047C27.3572 27.5605 27.2605 27.7015 27.139 27.8192C27.0174 27.937 26.8734 28.0291 26.7156 28.0901C26.5577 28.1511 26.3892 28.1797 26.2201 28.1742Z" fill="#239FDA"/>
<path d="M54.0278 7.12491V26.6678C54.0338 26.8493 54.0018 27.0301 53.9339 27.1986C53.8659 27.3671 53.7634 27.5195 53.6331 27.646C53.5027 27.7725 53.3473 27.8704 53.1769 27.9333C53.0065 27.9962 52.8248 28.0228 52.6435 28.0113C52.2872 28.0113 51.9454 27.8698 51.6934 27.6178C51.4415 27.3658 51.2999 27.0241 51.2999 26.6678V7.12491C51.2998 6.76472 51.44 6.41866 51.6909 6.16019C51.9417 5.90173 52.2835 5.75122 52.6435 5.74063C52.8268 5.73498 53.0093 5.76693 53.1798 5.8345C53.3504 5.90207 53.5052 6.00383 53.6349 6.13351C53.7646 6.2632 53.8664 6.41806 53.9339 6.58856C54.0015 6.75907 54.0334 6.9416 54.0278 7.12491Z" fill="#FBFBFB"/>
<path d="M74.1407 20.1944C74.1407 24.9579 71.0464 28.1744 66.405 28.1744C61.7635 28.1744 58.71 24.9579 58.71 20.1944C58.71 15.4308 61.7635 12.2144 66.405 12.2144C71.0464 12.2144 74.1407 15.4308 74.1407 20.1944ZM71.3721 20.1536C71.3721 16.2044 68.7257 14.6979 66.405 14.6979C64.0843 14.6979 61.4378 16.2044 61.4378 20.1536C61.4378 24.1029 64.0843 25.6908 66.405 25.6908C68.7257 25.6908 71.3721 24.1844 71.3721 20.1536Z" fill="#FBFBFB"/>
<path d="M78.4564 22.2708V13.7208C78.5121 13.3994 78.6795 13.1081 78.929 12.8981C79.1786 12.6881 79.4942 12.573 79.8204 12.573C80.1465 12.573 80.4621 12.6881 80.7116 12.8981C80.9612 13.1081 81.1286 13.3994 81.1843 13.7208V21.9858C81.1843 24.2658 82.1614 25.65 84.4821 25.65C86.8028 25.65 88.2278 24.2658 89.4493 22.7593V13.7208C89.505 13.3994 89.6724 13.1081 89.9219 12.8981C90.1714 12.6881 90.4871 12.573 90.8132 12.573C91.1393 12.573 91.455 12.6881 91.7045 12.8981C91.954 13.1081 92.1214 13.3994 92.1771 13.7208V26.6272C92.2116 26.826 92.2022 27.03 92.1495 27.2248C92.0969 27.4196 92.0023 27.6006 91.8724 27.755C91.7424 27.9094 91.5803 28.0336 91.3973 28.1187C91.2144 28.2039 91.015 28.248 90.8132 28.248C90.6114 28.248 90.412 28.2039 90.2291 28.1187C90.0461 28.0336 89.884 27.9094 89.754 27.755C89.6241 27.6006 89.5295 27.4196 89.4768 27.2248C89.4242 27.03 89.4148 26.826 89.4493 26.6272V25.4058C88.1464 26.79 86.5178 28.1743 83.8307 28.1743C80.4107 28.1743 78.4564 25.4872 78.4564 22.2708Z" fill="#FBFBFB"/>
<path d="M113.593 21.9858C113.593 25.4872 111.435 27.8894 105.857 27.8894H98.5692C98.3893 27.8895 98.2112 27.8534 98.0455 27.7833C97.8798 27.7133 97.7298 27.6107 97.6045 27.4816C97.4792 27.3525 97.3811 27.1995 97.316 27.0318C97.2509 26.864 97.2202 26.6849 97.2257 26.5051V8.22437C97.2255 7.86419 97.3657 7.51812 97.6166 7.25965C97.8675 7.00119 98.2092 6.85068 98.5692 6.84009H105.654C110.051 6.84009 112.412 9.03866 112.412 12.2958C112.45 13.2752 112.191 14.2431 111.667 15.0717C111.144 15.9004 110.381 16.5509 109.481 16.9372C111.639 17.6294 113.593 19.2172 113.593 21.9858ZM105.45 9.40509H99.9535V15.9601H104.961C108.748 15.9601 109.806 14.4944 109.806 12.4994C109.806 10.5044 108.219 9.40509 105.45 9.40509ZM110.946 21.8637C110.946 19.4615 109.074 18.4029 105.613 18.4029H99.9535V25.3244H105.572C109.725 25.3244 110.946 23.8994 110.946 21.8637Z" fill="#239FDA"/>
<path d="M46.74 25.7721C46.7413 25.9766 46.6894 26.1779 46.5895 26.3563C46.4896 26.5348 46.345 26.6842 46.17 26.79C44.7762 27.7275 43.1265 28.211 41.4471 28.1742C37.335 28.1742 33.7114 25.3242 33.7114 20.4792C33.7114 15.6342 37.335 12.8249 41.4471 12.8249C43.1265 12.7882 44.7762 13.2717 46.17 14.2092C46.345 14.315 46.4896 14.4644 46.5895 14.6428C46.6894 14.8213 46.7413 15.0226 46.74 15.2271C46.7306 15.5195 46.6129 15.7981 46.4098 16.0087C46.2067 16.2194 45.9326 16.3471 45.6407 16.3671C45.4238 16.3928 45.2053 16.3345 45.03 16.2042C44.0255 15.5885 42.8696 15.2643 41.6914 15.2678C38.3121 15.2678 36.3579 17.3849 36.3579 20.4792C36.3579 23.5735 38.3121 25.7314 41.6914 25.7314C42.8696 25.7349 44.0255 25.4107 45.03 24.7949C45.2053 24.6646 45.4238 24.6064 45.6407 24.6321C45.9359 24.6426 46.2155 24.7674 46.4206 24.98C46.6257 25.1927 46.7402 25.4767 46.74 25.7721Z" fill="#FBFBFB"/>
</g>
<defs>
<clipPath id="clip0">
<rect width="114" height="28.5" fill="white"/>
</clipPath>
</defs>
</svg>
