<svg width="20" height="16" viewBox="0 0 20 16" fill="none" xmlns="http://www.w3.org/2000/svg">
<path d="M19.824 1.97363L13.7584 8.00016L19.824 14.0267C19.9337 13.7975 20.0002 13.5441 20.0002 13.2736V2.72672C20.0002 2.45613 19.9337 2.20281 19.824 1.97363Z" fill="white"/>
<path d="M18.242 0.96875H1.7576C1.48702 0.96875 1.2337 1.03527 1.00452 1.14492L8.75698 8.85832C9.44244 9.54379 10.5571 9.54379 11.2426 8.85832L18.9951 1.14492C18.7659 1.03527 18.5126 0.96875 18.242 0.96875Z" fill="white"/>
<path d="M0.176172 1.97363C0.0665234 2.20281 0 2.45613 0 2.72672V13.2736C0 13.5442 0.0665234 13.7975 0.176172 14.0267L6.24176 8.00016L0.176172 1.97363Z" fill="white"/>
<path d="M12.9295 8.82861L12.0712 9.68693C10.929 10.8291 9.07053 10.8291 7.92838 9.68693L7.0701 8.82861L1.00452 14.8551C1.2337 14.9648 1.48702 15.0313 1.7576 15.0313H18.242C18.5126 15.0313 18.7659 14.9648 18.9951 14.8551L12.9295 8.82861Z" fill="white"/>
</svg>
