<svg width="20" height="20" viewBox="0 0 20 20" fill="none" xmlns="http://www.w3.org/2000/svg">
<g clip-path="url(#clip0)">
<path d="M19.2951 11.6782C19.3697 11.1005 19.4125 10.519 19.4233 9.93648C19.419 8.67719 19.1798 7.42992 18.7182 6.25942C18.2162 5.13563 17.5219 4.10937 16.6669 3.22747C15.8099 2.35959 14.7843 1.67882 13.6541 1.22766C12.5041 0.71282 11.2589 0.448989 10.0002 0.453547C9.39683 0.453954 8.79517 0.518828 8.20537 0.647076C7.40247 0.199187 6.49482 -0.0235978 5.57717 0.00197859C4.09808 0.00197859 2.67956 0.593278 1.63369 1.6458C0.587811 2.69832 0.000244141 4.12584 0.000244141 5.61433C0.00673929 6.56255 0.24916 7.49404 0.705373 8.32374C0.6309 8.85828 0.588089 9.39682 0.577168 9.93648C0.572639 11.2031 0.834804 12.4563 1.3464 13.6135C1.79471 14.7509 2.47118 15.783 3.33358 16.6455C4.19889 17.5194 5.22129 18.2199 6.3464 18.7098C7.5095 19.1743 8.74891 19.415 10.0002 19.4194L11.6669 19.2904C12.5144 19.7498 13.4607 19.9934 14.4233 20C15.9024 20 17.3209 19.4087 18.3668 18.3562C19.4127 17.3037 20.0002 15.8761 20.0002 14.3877C19.9937 13.4394 19.7513 12.5079 19.2951 11.6782ZM10.0643 15.7424C6.66691 15.7424 5.19255 14.1296 5.19255 12.8394C5.19228 12.6983 5.22077 12.5586 5.27628 12.4289C5.33178 12.2993 5.41312 12.1825 5.51525 12.0858C5.61739 11.989 5.73815 11.9144 5.87009 11.8665C6.00202 11.8186 6.14231 11.7984 6.2823 11.8073C7.75666 11.8073 7.37204 13.8716 10.0643 13.8716C11.4105 13.8716 12.1797 13.0975 12.1797 12.3233C12.1797 11.5492 11.9233 11.3557 11.0259 11.1622L8.07717 10.388C5.64127 9.80746 5.25666 8.51727 5.25666 7.22707C5.25666 4.71119 7.62845 3.74354 9.87204 3.74354C12.1156 3.74354 14.3592 4.90472 14.3592 6.45295C14.3515 6.603 14.3132 6.74985 14.2468 6.8844C14.1803 7.01894 14.0871 7.1383 13.9729 7.23509C13.8587 7.33187 13.7259 7.404 13.5829 7.44701C13.4398 7.49002 13.2895 7.50299 13.1413 7.48511C11.9233 7.48511 12.1156 5.74335 9.67973 5.74335C8.46178 5.74335 7.75665 6.32393 7.75665 7.09805C7.75665 7.87217 8.71819 8.19472 9.55153 8.38825L11.7951 8.83982C14.1669 9.4204 14.8079 10.8396 14.8079 12.1298C14.8079 13.42 13.2054 15.7424 10.0643 15.7424Z" fill="white"/>
</g>
<defs>
<clipPath id="clip0">
<rect width="20" height="20" fill="white"/>
</clipPath>
</defs>
</svg>
