<svg width="20" height="20" viewBox="0 0 20 20" fill="none" xmlns="http://www.w3.org/2000/svg">
<g clip-path="url(#clip0)">
<path d="M19.2958 11.5775C19.8924 6.55502 19.0091 3.38419 17.4158 1.95002L17.4166 1.94919C14.8449 -0.49998 6.15994 -0.86248 3.08328 2.05919C1.70161 3.48835 1.21494 5.58586 1.16161 8.18252C1.10828 10.78 1.04494 15.6459 5.57911 16.9659H5.58328L5.57911 18.9817C5.57911 18.9817 5.54828 19.7984 6.06994 19.9625C6.66661 20.1559 6.93661 19.7767 8.79244 17.56C11.8958 17.8292 14.2791 17.2125 14.5499 17.1225C15.1766 16.9125 18.7224 16.4434 19.2958 11.5775Z" fill="white"/>
<path d="M10.1851 3.58081C9.86425 3.58081 9.86425 4.08081 10.1851 4.08498C12.6742 4.10414 14.7242 5.83914 14.7467 9.02164C14.7467 9.35748 15.2384 9.35331 15.2343 9.01748H15.2334C15.2068 5.58831 12.9684 3.59998 10.1851 3.58081Z" fill="#041016"/>
<path d="M13.4592 8.4942C13.4517 8.82586 13.9425 8.8417 13.9467 8.50586C13.9875 6.61503 12.8217 5.05753 10.6309 4.89336C10.31 4.87003 10.2767 5.3742 10.5967 5.39753C12.4967 5.5417 13.4975 6.83836 13.4592 8.4942Z" fill="#041016"/>
<path d="M12.9341 10.645C12.5225 10.4067 12.1033 10.555 11.93 10.7892L11.5675 11.2583C11.3833 11.4967 11.0391 11.465 11.0391 11.465C8.52747 10.8008 7.85581 8.17251 7.85581 8.17251C7.85581 8.17251 7.82497 7.81667 8.05497 7.62584L8.50831 7.25084C8.73497 7.07084 8.8783 6.63751 8.64747 6.21167C8.03081 5.09751 7.61664 4.71334 7.40581 4.41834C7.18414 4.14084 6.85081 4.07834 6.50414 4.26584H6.49664C5.77581 4.68751 4.98664 5.47667 5.23914 6.28917C5.66997 7.14584 6.46164 9.87667 8.98497 11.94C10.1708 12.9158 12.0475 13.9158 12.8441 14.1467L12.8516 14.1583C13.6366 14.42 14.4 13.6 14.8075 12.8575V12.8517C14.9883 12.4925 14.9283 12.1525 14.6641 11.93C14.1958 11.4733 13.4891 10.9692 12.9341 10.645Z" fill="#041016"/>
<path d="M10.9742 6.75348C11.7751 6.80015 12.1634 7.21848 12.2051 8.07765C12.2201 8.41348 12.7076 8.39015 12.6926 8.05432C12.6393 6.93265 12.0543 6.30765 11.0009 6.24931C10.6801 6.23015 10.6501 6.73431 10.9742 6.75348Z" fill="#041016"/>
</g>
<defs>
<clipPath id="clip0">
<rect width="20" height="20" fill="white"/>
</clipPath>
</defs>
</svg>
