<svg width="20" height="20" viewBox="0 0 20 20" fill="none" xmlns="http://www.w3.org/2000/svg">
<path d="M4.3171 20C4.99758 20 5.54923 19.4577 5.54923 18.7888C5.54923 18.1198 4.99758 17.5775 4.3171 17.5775C3.63661 17.5775 3.08496 18.1198 3.08496 18.7888C3.08496 19.4577 3.63661 20 4.3171 20Z" fill="white"/>
<path d="M16.1457 20C16.8262 20 17.3778 19.4577 17.3778 18.7888C17.3778 18.1198 16.8262 17.5775 16.1457 17.5775C15.4652 17.5775 14.9136 18.1198 14.9136 18.7888C14.9136 19.4577 15.4652 20 16.1457 20Z" fill="white"/>
<path d="M19.2607 3.04264H5.90439V4.49612H18.2652L16.343 10.7946H4.56382V3.89535C4.56382 3.58527 4.42583 3.29457 4.20897 3.11047L1.04485 0L0 1.02713L3.08526 4.06977V15.3973C3.08526 15.7946 3.4204 16.124 3.82454 16.124H15.4066V14.6705H4.56382V12.2481H16.895C17.2203 12.2481 17.516 12.0349 17.6047 11.7248L19.9704 3.96318C19.9803 3.91473 20 3.8469 20 3.76938C20 3.3624 19.6747 3.04264 19.2607 3.04264Z" fill="white"/>
</svg>
