<svg width="18" height="18" viewBox="0 0 18 18" fill="none" xmlns="http://www.w3.org/2000/svg">
<circle cx="9" cy="9" r="9" fill="black"/>
<path d="M9.51172 13.748H8.08789V7.4082H9.51172V13.748ZM8 5.76172C8 5.54297 8.06836 5.36133 8.20508 5.2168C8.3457 5.07227 8.54492 5 8.80273 5C9.06055 5 9.25977 5.07227 9.40039 5.2168C9.54102 5.36133 9.61133 5.54297 9.61133 5.76172C9.61133 5.97656 9.54102 6.15625 9.40039 6.30078C9.25977 6.44141 9.06055 6.51172 8.80273 6.51172C8.54492 6.51172 8.3457 6.44141 8.20508 6.30078C8.06836 6.15625 8 5.97656 8 5.76172Z" fill="white"/>
</svg>
