<svg width="36" height="36" viewBox="0 0 36 36" fill="none" xmlns="http://www.w3.org/2000/svg">
<rect width="36" height="36" rx="18" fill="#1A1A1A"/>
<g clip-path="url(#clip0)">
<path d="M18 8.10001L9 14.364V26.181H12.753H18H23.247H27V14.364L18 8.10001ZM18 18.306C18.207 18.306 18.378 18.135 18.378 17.928V17.181H20.25V20.934H18H15.75V17.181H17.622V17.928C17.622 18.135 17.793 18.306 18 18.306ZM15.372 22.806C15.579 22.806 15.75 22.635 15.75 22.428V21.681H17.622V25.434H13.122V21.681H14.994V22.428C15.003 22.635 15.165 22.806 15.372 22.806ZM18.378 25.434V21.681H20.25V22.428C20.25 22.635 20.421 22.806 20.628 22.806C20.835 22.806 21.006 22.635 21.006 22.428V21.681H22.878V25.434H18.378ZM26.253 25.434H23.625V21.312C23.625 21.105 23.454 20.934 23.247 20.934H20.997V16.803C20.997 16.596 20.826 16.425 20.619 16.425H15.372C15.165 16.425 14.994 16.596 14.994 16.803V20.925H12.744C12.537 20.925 12.366 21.096 12.366 21.303V25.425H9.747V14.751L18 9.01801L26.253 14.76V25.434Z" fill="white" stroke="white" stroke-width="0.5"/>
</g>
<defs>
<clipPath id="clip0">
<rect width="21.6" height="21.6" fill="white" transform="translate(7.19995 7.20001)"/>
</clipPath>
</defs>
</svg>
