<svg width="28" height="24" viewBox="0 0 28 24" fill="none" xmlns="http://www.w3.org/2000/svg">
<path d="M19.4838 3.94629C18.5812 3.94629 17.7607 4.24159 17.0496 4.84562L16.6257 5.19461L17.8701 6.41609L18.2257 6.12079C18.5812 5.82548 19.0188 5.67783 19.4838 5.67783C20.0035 5.67783 20.5095 5.87918 20.8787 6.24159C21.2479 6.60401 21.453 7.10065 21.453 7.61072C21.453 8.04025 21.2889 8.46978 20.9881 8.84562L20.7009 9.19461L21.9454 10.4161L22.3009 9.99998C22.889 9.32884 23.2172 8.4832 23.2172 7.5973C23.2172 6.61743 22.8343 5.69126 22.1231 5.00669C21.4257 4.32213 20.4821 3.94629 19.4838 3.94629Z" fill="#333333"/>
<path d="M25.0361 2.25503C23.5591 0.805369 21.5762 0 19.4839 0C17.542 0 15.6822 0.697987 14.2463 1.95973L14.0138 2.16107L13.7813 1.95973C12.3317 0.697987 10.4719 0 8.52998 0C6.43766 0 4.45475 0.805369 2.97782 2.25503C0.0239522 5.15436 -0.112801 9.79866 2.64961 12.8456L14.0001 24L25.3369 12.8591C28.113 9.81208 27.9762 5.15436 25.0361 2.25503ZM14.0001 21.1544L4.15389 11.4631C2.1573 9.22148 2.28038 5.79866 4.4274 3.69128C5.52142 2.61745 6.98468 2.01342 8.54366 2.01342C9.97956 2.01342 11.3471 2.52349 12.4138 3.46309L14.0138 4.87248L15.6138 3.46309C16.6805 2.52349 18.048 2.01342 19.4839 2.01342C21.0429 2.01342 22.4925 2.60403 23.5865 3.67785C25.7335 5.79866 25.8429 9.22148 23.8463 11.4765L14.0001 21.1544Z" fill="#333333"/>
</svg>
