<svg width="28" height="28" viewBox="0 0 28 28" fill="none" xmlns="http://www.w3.org/2000/svg">
<path d="M6.42287 27.3332C7.33019 27.3332 8.06572 26.6102 8.06572 25.7183C8.06572 24.8263 7.33019 24.1033 6.42287 24.1033C5.51556 24.1033 4.78003 24.8263 4.78003 25.7183C4.78003 26.6102 5.51556 27.3332 6.42287 27.3332Z" fill="#333333"/>
<path d="M22.1943 27.3332C23.1016 27.3332 23.8371 26.6102 23.8371 25.7183C23.8371 24.8263 23.1016 24.1033 22.1943 24.1033C21.287 24.1033 20.5515 24.8263 20.5515 25.7183C20.5515 26.6102 21.287 27.3332 22.1943 27.3332Z" fill="#333333"/>
<path d="M26.3476 4.72347H8.5392V6.66146H25.0202L22.4574 15.0594H6.75179V5.86042C6.75179 5.44699 6.56779 5.05939 6.27865 4.81391L2.05982 0.666626L0.666687 2.03614L4.78037 6.09298V21.1963C4.78037 21.7261 5.22723 22.1653 5.76608 22.1653H21.2088V20.2274H6.75179V16.9974H23.1934C23.6271 16.9974 24.0214 16.7131 24.1397 16.2997L27.2939 5.95086C27.3071 5.88626 27.3334 5.79583 27.3334 5.69247C27.3334 5.14983 26.8996 4.72347 26.3476 4.72347Z" fill="#333333"/>
</svg>
