<svg width="20" height="20" viewBox="0 0 20 20" fill="none" xmlns="http://www.w3.org/2000/svg">
<g clip-path="url(#clip0)">
<path d="M19.8239 3.97339L13.7583 9.99991L19.8239 16.0264C19.9335 15.7973 20.0001 15.5439 20.0001 15.2733V4.72647C20.0001 4.45589 19.9335 4.20257 19.8239 3.97339Z" fill="#E0E0E0"/>
<path d="M18.242 2.96875H1.7576C1.48702 2.96875 1.2337 3.03527 1.00452 3.14492L8.75698 10.8583C9.44245 11.5438 10.5571 11.5438 11.2426 10.8583L18.9951 3.14492C18.7659 3.03527 18.5126 2.96875 18.242 2.96875Z" fill="#E0E0E0"/>
<path d="M0.176172 3.97339C0.0665234 4.20257 0 4.45589 0 4.72647V15.2733C0 15.5439 0.0665234 15.7973 0.176172 16.0264L6.24176 9.99991L0.176172 3.97339Z" fill="#E0E0E0"/>
<path d="M12.9295 10.8286L12.0712 11.6869C10.929 12.8291 9.07053 12.8291 7.92838 11.6869L7.0701 10.8286L1.00452 16.8551C1.2337 16.9648 1.48702 17.0313 1.7576 17.0313H18.242C18.5126 17.0313 18.7659 16.9648 18.9951 16.8551L12.9295 10.8286Z" fill="#E0E0E0"/>
</g>
<defs>
<clipPath id="clip0">
<rect width="20" height="20" fill="white"/>
</clipPath>
</defs>
</svg>
