<svg width="20" height="20" viewBox="0 0 20 20" fill="none" xmlns="http://www.w3.org/2000/svg">
<path d="M16.4162 17.4937L17.4924 16.4181L20 18.9244L18.9239 20L16.4162 17.4937ZM8.88325 17.7575C3.9797 17.7575 0 13.7798 0 8.87874C0 3.98782 3.9797 0 8.88325 0C13.7868 0 17.7665 3.98782 17.7665 8.87874C17.7665 13.7798 13.7868 17.7575 8.88325 17.7575ZM8.88325 1.52207C4.82233 1.52207 1.52284 4.81989 1.52284 8.87874C1.52284 12.9376 4.82233 16.2354 8.88325 16.2354C12.9442 16.2354 16.2437 12.9376 16.2437 8.87874C16.2437 4.81989 12.9442 1.52207 8.88325 1.52207Z" fill="white"/>
</svg>
