<svg width="28" height="24" viewBox="0 0 28 24" fill="none" xmlns="http://www.w3.org/2000/svg">
<path d="M23.1766 5.50054L27.2138 4.19027L26.5764 2.33513L21.9681 3.84L14.996 1.56973V0H13.004V1.56973L6.03189 3.84L1.42366 2.33513L0.786209 4.1773L4.82339 5.48757L0.666687 16.6573L0.82605 16.8C2.24703 18.0973 4.09298 18.7978 6.03189 18.7978C7.9708 18.7978 9.83003 18.0843 11.2377 16.8L11.3971 16.6573L7.24039 5.50054L13.004 3.61946V22.0541H7.69192V24H20.3081V22.0541H14.996V3.61946L20.7596 5.50054L16.6029 16.6573L16.7623 16.8C18.1833 18.0973 20.0292 18.7978 21.9681 18.7978C23.9071 18.7978 25.7663 18.0843 27.174 16.8L27.3334 16.6573L23.1766 5.50054ZM8.79418 16.1643C7.95752 16.6184 7.00135 16.8649 6.03189 16.8649C5.06244 16.8649 4.10626 16.6184 3.26961 16.1643L3.03056 16.0346L6.03189 7.95243L9.0465 16.0346L8.79418 16.1643ZM24.7304 16.1643C23.8938 16.6184 22.9376 16.8649 21.9681 16.8649C20.9987 16.8649 20.0425 16.6184 19.2059 16.1643L18.9668 16.0346L21.9681 7.95243L24.9828 16.0346L24.7304 16.1643Z" fill="#333333"/>
</svg>
