<svg width="168" height="42" viewBox="0 0 168 42" fill="none" xmlns="http://www.w3.org/2000/svg">
<path d="M38.6401 41.52H12.0001C8.97663 41.52 6.07699 40.319 3.93908 38.1811C1.80117 36.0431 0.600098 33.1435 0.600098 30.12C0.600098 27.0966 1.80117 24.1969 3.93908 22.059C6.07699 19.9211 8.97663 18.72 12.0001 18.72L13.6801 18.84C14.2219 16.0866 15.7024 13.6064 17.8689 11.8229C20.0355 10.0393 22.7538 9.06281 25.5601 9.06003C26.8055 9.04869 28.0435 9.25165 29.2201 9.66004C30.2757 7.13018 32.0071 4.93952 34.2245 3.3279C36.442 1.71629 39.0602 0.74584 41.7924 0.522805C44.5245 0.29977 47.2654 0.832746 49.7149 2.06338C52.1644 3.29402 54.2281 5.17488 55.6801 7.50003C55.814 7.70884 55.9055 7.94198 55.9494 8.18614C55.9932 8.43031 55.9886 8.68073 55.9356 8.92309C55.8827 9.16545 55.7826 9.39501 55.6409 9.59867C55.4993 9.80232 55.3189 9.97609 55.1101 10.11C54.9013 10.244 54.6681 10.3355 54.424 10.3793C54.1798 10.4232 53.9294 10.4185 53.687 10.3656C53.4447 10.3127 53.2151 10.2125 53.0115 10.0709C52.8078 9.92921 52.634 9.74884 52.5001 9.54003C51.3448 7.68569 49.6707 6.21123 47.6852 5.29949C45.6998 4.38775 43.4904 4.07883 41.331 4.41104C39.1716 4.74325 37.1573 5.70198 35.5377 7.16834C33.9181 8.6347 32.7646 10.5442 32.2201 12.66L31.6201 15L29.4601 13.86C28.1999 13.1737 26.7829 12.8267 25.3482 12.8531C23.9135 12.8794 22.5102 13.2781 21.2761 14.0102C20.0419 14.7422 19.0191 15.7824 18.3081 17.0289C17.597 18.2753 17.2221 19.6851 17.2201 21.12V23.94L14.6401 22.98C13.7926 22.6755 12.9006 22.5133 12.0001 22.5C9.97915 22.5 8.04097 23.3029 6.61194 24.7319C5.18292 26.1609 4.3801 28.0991 4.3801 30.12C4.3801 32.141 5.18292 34.0792 6.61194 35.5082C8.04097 36.9372 9.97915 37.74 12.0001 37.74H38.6401C38.8922 37.74 39.1419 37.7897 39.3748 37.8862C39.6078 37.9827 39.8194 38.1241 39.9977 38.3024C40.176 38.4807 40.3174 38.6923 40.4139 38.9253C40.5104 39.1582 40.5601 39.4079 40.5601 39.66C40.5602 39.9094 40.5102 40.1563 40.413 40.386C40.3158 40.6156 40.1734 40.8234 39.9943 40.9969C39.8151 41.1705 39.603 41.3062 39.3703 41.3961C39.1377 41.4859 38.8894 41.5281 38.6401 41.52Z" fill="#239FDA"/>
<path d="M79.62 10.5V39.3001C79.6289 39.5676 79.5818 39.8341 79.4816 40.0823C79.3814 40.3306 79.2304 40.5552 79.0383 40.7416C78.8462 40.9281 78.6173 41.0723 78.3661 41.165C78.115 41.2578 77.8472 41.2969 77.58 41.2801C77.0549 41.2801 76.5513 41.0714 76.18 40.7001C75.8086 40.3288 75.6 39.8252 75.6 39.3001V10.5C75.5998 9.96924 75.8065 9.45925 76.1762 9.07835C76.5459 8.69746 77.0495 8.47566 77.58 8.46004C77.8502 8.45173 78.1192 8.4988 78.3704 8.59838C78.6217 8.69796 78.8499 8.84792 79.0411 9.03904C79.2322 9.23015 79.3821 9.45837 79.4817 9.70964C79.5813 9.9609 79.6284 10.2299 79.62 10.5Z" fill="#0B1423"/>
<path d="M109.26 29.76C109.26 36.78 104.7 41.52 97.8598 41.52C91.0198 41.52 86.5198 36.78 86.5198 29.76C86.5198 22.74 91.0198 18 97.8598 18C104.7 18 109.26 22.74 109.26 29.76ZM105.18 29.7C105.18 23.88 101.28 21.66 97.8598 21.66C94.4398 21.66 90.5398 23.88 90.5398 29.7C90.5398 35.52 94.4398 37.86 97.8598 37.86C101.28 37.86 105.18 35.64 105.18 29.7Z" fill="#0B1423"/>
<path d="M115.62 32.82V20.22C115.702 19.7465 115.949 19.3171 116.316 19.0077C116.684 18.6982 117.149 18.5286 117.63 18.5286C118.11 18.5286 118.576 18.6982 118.943 19.0077C119.311 19.3171 119.558 19.7465 119.64 20.22V32.4C119.64 35.76 121.08 37.8 124.5 37.8C127.92 37.8 130.02 35.76 131.82 33.54V20.22C131.902 19.7465 132.149 19.3171 132.516 19.0077C132.884 18.6982 133.349 18.5286 133.83 18.5286C134.31 18.5286 134.776 18.6982 135.143 19.0077C135.511 19.3171 135.758 19.7465 135.84 20.22V39.24C135.891 39.533 135.877 39.8336 135.799 40.1207C135.722 40.4078 135.582 40.6745 135.391 40.9021C135.199 41.1296 134.96 41.3126 134.691 41.4381C134.421 41.5636 134.127 41.6286 133.83 41.6286C133.532 41.6286 133.239 41.5636 132.969 41.4381C132.699 41.3126 132.46 41.1296 132.269 40.9021C132.077 40.6745 131.938 40.4078 131.86 40.1207C131.783 39.8336 131.769 39.533 131.82 39.24V37.44C129.9 39.48 127.5 41.52 123.54 41.52C118.5 41.52 115.62 37.56 115.62 32.82Z" fill="#0B1423"/>
<path d="M167.4 32.4C167.4 37.56 164.22 41.1 156 41.1H145.26C144.995 41.1001 144.732 41.0469 144.488 40.9437C144.244 40.8405 144.023 40.6892 143.838 40.499C143.654 40.3087 143.509 40.0833 143.413 39.8361C143.317 39.5889 143.272 39.325 143.28 39.06V12.12C143.28 11.5892 143.487 11.0792 143.856 10.6983C144.226 10.3174 144.73 10.0956 145.26 10.08H155.7C162.18 10.08 165.66 13.32 165.66 18.12C165.716 19.5632 165.334 20.9896 164.562 22.2108C163.791 23.432 162.668 24.3906 161.34 24.96C164.52 25.98 167.4 28.32 167.4 32.4ZM155.4 13.86H147.3V23.52H154.68C160.26 23.52 161.82 21.36 161.82 18.42C161.82 15.48 159.48 13.86 155.4 13.86ZM163.5 32.22C163.5 28.68 160.74 27.12 155.64 27.12H147.3V37.32H155.58C161.7 37.32 163.5 35.22 163.5 32.22Z" fill="#239FDA"/>
<path d="M68.88 37.98C68.8818 38.2813 68.8054 38.578 68.6582 38.841C68.5109 39.1039 68.2979 39.3241 68.04 39.48C65.9859 40.8616 63.5549 41.5741 61.08 41.52C55.02 41.52 49.68 37.32 49.68 30.18C49.68 23.04 55.02 18.9 61.08 18.9C63.5549 18.8458 65.9859 19.5584 68.04 20.94C68.2979 21.0958 68.5109 21.316 68.6582 21.579C68.8054 21.8419 68.8818 22.1386 68.88 22.44C68.8661 22.871 68.6927 23.2814 68.3934 23.5918C68.0941 23.9023 67.6902 24.0905 67.26 24.12C66.9403 24.1579 66.6183 24.072 66.36 23.88C64.8797 22.9726 63.1762 22.4947 61.44 22.5C56.46 22.5 53.58 25.62 53.58 30.18C53.58 34.74 56.46 37.92 61.44 37.92C63.1762 37.9252 64.8797 37.4474 66.36 36.54C66.6183 36.348 66.9403 36.2621 67.26 36.3C67.6951 36.3155 68.1071 36.4994 68.4093 36.8128C68.7115 37.1262 68.8802 37.5446 68.88 37.98Z" fill="#0B1423"/>
</svg>
