<svg width="180" height="45" viewBox="0 0 180 45" fill="none" xmlns="http://www.w3.org/2000/svg">
<path d="M41.4 44.4858H12.8571C9.61768 44.4858 6.51092 43.1989 4.2203 40.9083C1.92968 38.6177 0.642822 35.5109 0.642822 32.2715C0.642822 29.032 1.92968 25.9253 4.2203 23.6347C6.51092 21.344 9.61768 20.0572 12.8571 20.0572L14.6571 20.1858C15.2376 17.2356 16.8239 14.5783 19.1452 12.6674C21.4665 10.7564 24.379 9.71016 27.3857 9.70719C28.72 9.69503 30.0465 9.91249 31.3071 10.35C32.4381 7.63948 34.2931 5.29235 36.669 3.56562C39.0449 1.83889 41.85 0.799123 44.7774 0.560157C47.7047 0.32119 50.6414 0.892236 53.2658 2.21078C55.8903 3.52932 58.1014 5.54452 59.6571 8.03576C59.8006 8.25948 59.8987 8.50927 59.9456 8.77088C59.9926 9.03249 59.9876 9.30079 59.9309 9.56046C59.8742 9.82013 59.7669 10.0661 59.6151 10.2843C59.4633 10.5025 59.2701 10.6887 59.0464 10.8322C58.8227 10.9757 58.5729 11.0738 58.3113 11.1207C58.0497 11.1677 57.7814 11.1627 57.5217 11.106C57.262 11.0493 57.016 10.942 56.7978 10.7902C56.5796 10.6384 56.3935 10.4452 56.25 10.2215C55.0122 8.23468 53.2184 6.6549 51.0912 5.67804C48.9639 4.70117 46.5967 4.37019 44.2831 4.72613C41.9695 5.08207 39.8112 6.10927 38.076 7.68037C36.3407 9.25147 35.1048 11.2974 34.5214 13.5643L33.8785 16.0715L31.5642 14.85C30.214 14.1147 28.6959 13.743 27.1587 13.7712C25.6215 13.7994 24.118 14.2266 22.7956 15.0109C21.4733 15.7952 20.3775 16.9098 19.6156 18.2452C18.8538 19.5806 18.4521 21.0912 18.45 22.6286V25.65L15.6857 24.6215C14.7777 24.2951 13.8219 24.1214 12.8571 24.1072C10.6918 24.1072 8.61518 24.9674 7.08408 26.4985C5.55298 28.0296 4.69282 30.1062 4.69282 32.2715C4.69282 34.4368 5.55298 36.5134 7.08408 38.0445C8.61518 39.5756 10.6918 40.4358 12.8571 40.4358H41.4C41.6701 40.4358 41.9376 40.489 42.1872 40.5924C42.4368 40.6957 42.6636 40.8473 42.8546 41.0383C43.0456 41.2293 43.1971 41.4561 43.3005 41.7057C43.4039 41.9553 43.4571 42.2228 43.4571 42.4929C43.4572 42.7601 43.4036 43.0246 43.2995 43.2707C43.1953 43.5168 43.0428 43.7394 42.8509 43.9253C42.6589 44.1112 42.4316 44.2566 42.1823 44.3529C41.9331 44.4492 41.667 44.4944 41.4 44.4858Z" fill="white"/>
<path d="M85.3072 11.25V42.1071C85.3167 42.3938 85.2662 42.6793 85.1588 42.9453C85.0515 43.2113 84.8897 43.4519 84.6839 43.6516C84.4781 43.8514 84.2327 44.0059 83.9637 44.1053C83.6946 44.2046 83.4077 44.2466 83.1214 44.2285C82.5588 44.2285 82.0192 44.005 81.6214 43.6072C81.2235 43.2093 81 42.6697 81 42.1071V11.25C80.9998 10.6812 81.2212 10.1348 81.6173 9.72671C82.0134 9.31861 82.553 9.08096 83.1214 9.06424C83.4109 9.05533 83.6991 9.10577 83.9683 9.21245C84.2375 9.31914 84.482 9.47982 84.6868 9.68458C84.8916 9.88935 85.0522 10.1339 85.1589 10.4031C85.2656 10.6723 85.3161 10.9605 85.3072 11.25Z" fill="#FBFBFB"/>
<path d="M117.064 31.8856C117.064 39.4071 112.179 44.4856 104.85 44.4856C97.5214 44.4856 92.7 39.4071 92.7 31.8856C92.7 24.3642 97.5214 19.2856 104.85 19.2856C112.179 19.2856 117.064 24.3642 117.064 31.8856ZM112.693 31.8214C112.693 25.5856 108.514 23.2071 104.85 23.2071C101.186 23.2071 97.0071 25.5856 97.0071 31.8214C97.0071 38.0571 101.186 40.5642 104.85 40.5642C108.514 40.5642 112.693 38.1856 112.693 31.8214Z" fill="#FBFBFB"/>
<path d="M123.879 35.1643V21.6643C123.967 21.1569 124.231 20.6969 124.625 20.3654C125.019 20.0338 125.517 19.8521 126.032 19.8521C126.547 19.8521 127.046 20.0338 127.44 20.3654C127.834 20.6969 128.098 21.1569 128.186 21.6643V34.7143C128.186 38.3143 129.729 40.5 133.393 40.5C137.057 40.5 139.307 38.3143 141.236 35.9357V21.6643C141.324 21.1569 141.588 20.6969 141.982 20.3654C142.376 20.0338 142.874 19.8521 143.389 19.8521C143.904 19.8521 144.403 20.0338 144.797 20.3654C145.191 20.6969 145.455 21.1569 145.543 21.6643V42.0429C145.597 42.3568 145.583 42.6789 145.499 42.9865C145.416 43.2941 145.267 43.5798 145.062 43.8237C144.857 44.0675 144.601 44.2635 144.312 44.3979C144.023 44.5324 143.708 44.6021 143.389 44.6021C143.071 44.6021 142.756 44.5324 142.467 44.3979C142.178 44.2635 141.922 44.0675 141.717 43.8237C141.512 43.5798 141.362 43.2941 141.279 42.9865C141.196 42.6789 141.181 42.3568 141.236 42.0429V40.1143C139.179 42.3 136.607 44.4857 132.364 44.4857C126.964 44.4857 123.879 40.2429 123.879 35.1643Z" fill="#FBFBFB"/>
<path d="M179.357 34.7143C179.357 40.2429 175.95 44.0358 167.143 44.0358H155.636C155.352 44.0359 155.07 43.979 154.809 43.8684C154.547 43.7577 154.31 43.5957 154.112 43.3919C153.914 43.188 153.76 42.9465 153.657 42.6816C153.554 42.4168 153.506 42.134 153.514 41.85V12.9858C153.514 12.417 153.735 11.8706 154.131 11.4625C154.528 11.0544 155.067 10.8168 155.636 10.8H166.821C173.764 10.8 177.493 14.2715 177.493 19.4143C177.553 20.9607 177.143 22.489 176.317 23.7974C175.49 25.1058 174.286 26.1329 172.864 26.7429C176.271 27.8358 179.357 30.3429 179.357 34.7143ZM166.5 14.85H157.821V25.2001H165.728C171.707 25.2001 173.378 22.8858 173.378 19.7358C173.378 16.5858 170.871 14.85 166.5 14.85ZM175.178 34.5215C175.178 30.7286 172.221 29.0572 166.757 29.0572H157.821V39.9858H166.693C173.25 39.9858 175.178 37.7358 175.178 34.5215Z" fill="white"/>
<path d="M73.7999 40.6928C73.8019 41.0157 73.72 41.3335 73.5623 41.6153C73.4045 41.897 73.1763 42.1329 72.8999 42.2999C70.6992 43.7802 68.0944 44.5437 65.4428 44.4856C58.9499 44.4856 53.2285 39.9856 53.2285 32.3356C53.2285 24.6856 58.9499 20.2499 65.4428 20.2499C68.0944 20.1919 70.6992 20.9553 72.8999 22.4356C73.1763 22.6026 73.4045 22.8385 73.5623 23.1203C73.72 23.402 73.8019 23.7199 73.7999 24.0428C73.7851 24.5045 73.5993 24.9443 73.2786 25.2769C72.9579 25.6095 72.5251 25.8111 72.0642 25.8428C71.7217 25.8834 71.3767 25.7914 71.0999 25.5856C69.5139 24.6134 67.6888 24.1014 65.8285 24.1071C60.4928 24.1071 57.4071 27.4499 57.4071 32.3356C57.4071 37.2213 60.4928 40.6285 65.8285 40.6285C67.6888 40.6341 69.5139 40.1222 71.0999 39.1499C71.3767 38.9442 71.7217 38.8522 72.0642 38.8928C72.5304 38.9094 72.9719 39.1064 73.2957 39.4422C73.6194 39.778 73.8002 40.2263 73.7999 40.6928Z" fill="#FBFBFB"/>
</svg>
